<svg id="svg" version="1.1" xmlns="http://www.w3.org/2000/svg" xmlns:xlink="http://www.w3.org/1999/xlink" width="400" height="400" viewBox="0, 0, 400,400"><g id="svgg"><path id="path0" d="M220.061 116.313 C 217.114 116.870,214.317 118.080,209.642 120.819 C 200.847 125.972,198.942 126.058,191.627 121.624 C 182.555 116.126,176.000 115.301,169.881 118.887 C 159.603 124.911,158.659 139.318,166.895 164.453 C 169.684 172.965,170.877 177.524,172.264 184.961 C 175.088 200.102,178.657 206.538,183.930 205.994 C 187.335 205.643,189.494 202.006,191.197 193.750 C 194.148 179.450,197.033 173.938,201.009 175.009 C 203.616 175.711,205.171 179.097,207.506 189.160 C 210.293 201.170,212.309 204.948,216.073 205.218 C 217.614 205.328,217.793 205.076,216.807 204.185 C 214.890 202.453,213.739 198.481,212.601 189.673 C 210.477 173.232,207.541 168.295,200.073 168.602 C 192.218 168.926,188.311 177.072,187.402 195.020 C 187.004 202.889,186.059 204.545,183.485 201.887 C 181.694 200.038,180.915 197.369,179.199 187.207 C 177.212 175.442,176.326 171.689,173.434 162.794 C 166.976 142.934,166.677 131.819,172.444 126.010 C 176.494 121.930,182.372 122.058,192.024 126.436 C 202.095 131.004,205.039 131.030,212.754 126.620 C 221.456 121.646,226.869 122.053,230.898 127.986 C 234.811 133.748,235.983 146.634,233.665 158.398 C 233.155 160.988,235.824 153.525,236.801 149.629 C 242.135 128.368,234.688 113.547,220.061 116.313 M221.584 125.963 C 228.071 128.274,230.497 134.530,230.481 148.907 C 230.477 152.119,230.517 154.705,230.569 154.653 C 231.107 154.114,232.031 146.950,232.031 143.310 C 232.031 131.806,228.232 125.477,221.400 125.600 L 220.605 125.614 221.584 125.963 M116.742 212.145 C 116.555 212.943,113.141 221.028,112.601 221.949 C 112.243 222.560,111.873 222.912,111.412 223.079 C 110.275 223.490,110.657 223.633,112.891 223.633 C 115.154 223.633,115.539 223.456,114.355 222.962 C 113.979 222.805,113.672 222.648,113.672 222.614 C 113.672 222.580,113.924 221.894,114.233 221.091 L 114.794 219.629 116.658 219.573 L 118.521 219.518 118.950 220.647 C 119.752 222.758,119.762 222.848,119.227 223.051 C 118.195 223.443,118.771 223.633,120.996 223.633 C 123.304 223.633,123.779 223.450,122.535 223.039 C 121.713 222.768,121.416 222.200,118.759 215.823 C 117.050 211.723,116.903 211.454,116.742 212.145 M126.501 213.818 C 125.459 220.358,124.982 222.326,124.274 222.998 L 123.605 223.633 125.418 223.633 L 127.231 223.633 126.613 223.096 L 125.994 222.559 126.277 220.801 C 126.433 219.834,126.661 218.340,126.785 217.480 C 127.102 215.271,127.124 215.286,128.588 218.700 C 129.314 220.392,130.158 222.261,130.464 222.852 L 131.020 223.926 131.439 222.949 C 132.468 220.549,134.632 215.817,134.679 215.865 C 135.153 216.353,135.630 222.827,135.224 223.276 C 134.912 223.620,134.981 223.633,137.079 223.633 C 139.444 223.633,139.598 223.585,138.589 223.163 C 137.503 222.710,137.373 222.310,136.612 217.090 C 136.220 214.404,135.838 212.095,135.762 211.958 C 135.637 211.734,131.641 220.033,131.641 220.515 C 131.641 221.079,131.221 220.518,130.575 219.092 C 129.105 215.844,127.082 211.719,126.961 211.719 C 126.892 211.719,126.685 212.664,126.501 213.818 M176.578 212.939 C 174.351 218.717,172.443 222.708,171.759 223.020 C 170.821 223.447,171.270 223.633,173.242 223.633 C 175.335 223.633,175.541 223.531,174.586 222.967 C 173.907 222.565,173.879 221.700,174.497 220.219 L 174.785 219.531 176.700 219.531 L 178.615 219.531 179.044 220.654 C 179.807 222.654,179.809 222.776,179.070 223.179 L 178.418 223.535 179.744 223.593 C 180.474 223.625,181.617 223.625,182.284 223.593 L 183.496 223.535 182.779 223.210 C 181.708 222.724,181.896 223.102,178.066 213.721 C 177.102 211.358,177.173 211.396,176.578 212.939 M165.246 212.339 C 162.639 213.702,162.839 216.183,165.716 218.172 C 167.652 219.510,168.328 220.558,167.988 221.693 C 167.399 223.660,164.554 223.467,163.767 221.407 C 163.339 220.286,163.086 220.422,163.086 221.775 C 163.086 224.860,168.588 224.513,169.530 221.369 C 170.006 219.783,169.273 218.445,167.069 216.872 C 165.509 215.759,165.039 215.168,165.039 214.320 C 165.039 212.439,167.313 212.133,168.504 213.854 C 169.226 214.899,169.336 214.851,169.336 213.488 C 169.336 212.108,169.291 212.070,167.497 211.966 C 166.330 211.898,165.977 211.957,165.246 212.339 M210.036 212.176 C 202.607 214.079,204.351 223.760,212.109 223.687 C 215.291 223.657,215.958 223.153,215.996 220.752 C 216.016 219.506,216.197 219.158,217.096 218.638 C 217.667 218.308,217.245 218.254,214.941 218.364 C 212.902 218.461,212.826 218.480,213.442 218.730 C 214.763 219.266,214.817 222.247,213.515 222.791 C 211.410 223.671,208.247 221.770,207.492 219.172 C 205.854 213.537,212.524 210.054,215.565 214.957 C 215.758 215.268,215.799 215.077,215.809 213.839 C 215.818 212.667,215.756 212.322,215.519 212.231 C 214.824 211.964,211.012 211.926,210.036 212.176 M249.255 212.212 C 245.796 213.166,243.973 216.742,245.172 220.221 C 246.777 224.878,253.870 225.125,256.203 220.605 C 258.640 215.886,254.419 210.788,249.255 212.212 M140.039 212.289 C 140.039 212.388,140.297 212.526,140.612 212.595 C 141.674 212.828,141.699 212.951,141.699 217.871 C 141.699 222.792,141.674 222.914,140.612 223.147 C 139.337 223.427,140.170 223.633,142.578 223.633 C 144.141 223.633,145.117 223.558,145.117 223.438 C 145.117 223.330,144.953 223.242,144.753 223.242 C 144.553 223.242,144.157 223.060,143.874 222.837 L 143.359 222.433 143.359 217.887 C 143.359 213.041,143.428 212.695,144.389 212.695 C 144.828 212.695,144.984 212.370,144.612 212.227 C 144.116 212.037,140.039 212.092,140.039 212.289 M184.180 212.305 C 184.180 212.412,184.355 212.500,184.570 212.500 C 185.640 212.500,185.743 212.938,185.731 217.432 C 185.719 222.194,185.599 222.803,184.608 223.134 C 182.667 223.782,189.185 223.884,191.276 223.238 C 196.270 221.696,197.390 215.145,193.044 212.903 C 191.658 212.188,184.180 211.683,184.180 212.305 M197.921 212.351 C 197.870 212.433,197.961 212.500,198.122 212.500 C 198.284 212.500,198.662 212.712,198.964 212.972 L 199.512 213.443 199.512 217.872 L 199.512 222.300 198.964 222.771 C 198.662 223.030,198.271 223.242,198.095 223.242 C 197.874 223.242,197.837 223.305,197.975 223.444 C 198.098 223.567,199.152 223.624,200.699 223.590 L 203.223 223.535 202.489 223.203 C 201.443 222.729,201.367 222.355,201.367 217.654 C 201.367 213.163,201.529 212.500,202.628 212.500 C 202.794 212.500,202.929 212.434,202.929 212.354 C 202.928 212.160,198.040 212.157,197.921 212.351 M219.340 212.256 C 219.342 212.336,219.628 212.534,219.975 212.695 C 220.807 213.082,220.848 213.331,220.875 218.222 L 220.898 222.283 220.419 222.763 C 220.155 223.026,219.809 223.242,219.649 223.242 C 219.490 223.242,219.305 223.330,219.238 223.438 C 219.160 223.564,220.054 223.633,221.777 223.633 C 223.501 223.633,224.395 223.564,224.316 223.438 C 224.250 223.330,224.025 223.242,223.817 223.242 C 222.883 223.242,222.656 222.631,222.656 220.117 L 222.656 217.773 225.565 217.773 C 228.977 217.773,228.711 217.550,228.711 220.412 C 228.711 222.521,228.378 223.242,227.404 223.242 C 227.251 223.242,227.180 223.330,227.246 223.438 C 227.390 223.670,232.227 223.708,232.227 223.477 C 232.227 223.391,231.914 223.208,231.532 223.069 C 230.535 222.709,230.469 222.363,230.469 217.492 C 230.469 212.749,230.456 212.805,231.607 212.575 C 232.824 212.332,231.985 212.149,229.591 212.137 C 227.110 212.125,226.683 212.239,227.732 212.635 C 228.475 212.915,228.711 213.541,228.711 215.231 C 228.711 217.299,228.876 217.188,225.809 217.185 C 222.500 217.181,222.675 217.303,222.619 214.960 C 222.570 212.924,222.751 212.500,223.670 212.500 C 223.864 212.500,224.023 212.412,224.023 212.305 C 224.023 212.185,223.112 212.109,221.680 212.109 C 220.391 212.109,219.338 212.175,219.340 212.256 M234.107 212.264 C 234.041 212.371,234.200 212.512,234.460 212.577 C 235.525 212.844,235.547 212.948,235.547 217.744 C 235.547 222.312,235.429 223.047,234.694 223.047 C 234.560 223.047,234.279 223.176,234.071 223.334 C 233.731 223.590,233.961 223.621,236.279 223.627 C 237.878 223.630,238.867 223.558,238.867 223.438 C 238.867 223.330,238.707 223.242,238.511 223.242 C 237.465 223.242,237.349 222.720,237.276 217.676 L 237.207 212.988 237.836 212.928 C 240.699 212.651,241.517 217.003,238.851 218.323 C 237.870 218.808,238.185 219.078,239.350 218.751 C 242.465 217.879,243.355 214.102,240.800 212.598 C 240.049 212.156,234.350 211.871,234.107 212.264 M258.985 212.311 C 258.985 212.368,259.247 212.514,259.568 212.635 C 260.400 212.949,260.547 213.536,260.548 216.565 C 260.550 222.334,261.457 223.813,264.997 223.824 C 266.588 223.829,267.574 223.504,268.426 222.695 C 269.530 221.646,269.608 221.311,269.720 217.121 C 269.831 213.006,269.973 212.500,271.018 212.500 C 271.167 212.500,271.289 212.412,271.289 212.305 C 271.289 212.187,270.475 212.109,269.238 212.109 C 268.001 212.109,267.188 212.187,267.188 212.305 C 267.188 212.412,267.357 212.500,267.564 212.500 C 268.594 212.500,268.784 213.275,268.716 217.184 C 268.631 222.015,268.066 222.977,265.417 222.805 C 262.935 222.644,262.425 221.718,262.338 217.217 C 262.258 213.142,262.287 212.991,263.197 212.691 C 263.580 212.565,263.836 212.404,263.766 212.334 C 263.615 212.183,258.987 212.160,258.985 212.311 M273.161 212.278 C 273.077 212.414,273.168 212.500,273.400 212.500 C 273.606 212.500,274.007 212.682,274.290 212.905 L 274.805 213.310 274.805 217.796 L 274.805 222.283 274.325 222.763 C 274.062 223.026,273.710 223.242,273.544 223.242 C 273.378 223.242,273.242 223.330,273.242 223.438 C 273.242 223.557,274.154 223.633,275.586 223.633 C 277.785 223.633,278.549 223.440,277.447 223.163 C 276.547 222.937,276.465 222.494,276.457 217.773 C 276.447 212.619,276.582 212.285,278.313 213.180 C 280.579 214.352,279.862 217.773,277.350 217.773 C 276.938 217.773,276.815 218.056,277.140 218.257 C 277.243 218.320,278.169 219.466,279.198 220.804 C 281.372 223.631,281.427 223.669,283.158 223.591 C 284.403 223.535,284.443 223.519,283.913 223.286 C 282.975 222.873,282.396 222.323,280.617 220.153 L 278.909 218.072 279.768 217.635 C 282.039 216.481,282.194 213.775,280.053 212.682 C 279.063 212.177,273.428 211.846,273.161 212.278 M147.009 212.520 C 148.395 212.921,148.482 213.262,148.403 217.969 C 148.324 222.707,148.272 222.904,147.018 223.284 L 146.191 223.535 147.510 223.593 C 149.641 223.686,151.532 223.561,151.074 223.357 C 150.066 222.908,150.000 222.725,150.000 220.391 C 150.000 217.660,150.097 217.600,151.503 219.454 C 154.603 223.541,154.782 223.685,156.675 223.591 C 157.877 223.532,157.894 223.524,157.324 223.278 C 156.533 222.936,155.087 221.508,153.692 219.689 C 152.358 217.951,152.361 217.963,153.103 217.524 C 155.372 216.184,155.530 213.468,153.391 212.574 C 152.926 212.380,151.862 212.310,149.567 212.322 C 147.281 212.335,146.562 212.391,147.009 212.520 M252.336 213.277 C 256.590 215.447,255.727 223.047,251.227 223.047 C 248.593 223.047,246.859 221.129,246.716 218.058 C 246.523 213.921,249.176 211.665,252.336 213.277 M152.227 213.415 C 154.005 214.728,152.794 217.987,150.622 217.736 L 150.098 217.676 150.042 215.556 C 149.969 212.792,150.578 212.196,152.227 213.415 M191.309 213.428 C 195.751 215.723,194.164 222.852,189.210 222.852 C 187.271 222.852,187.305 222.940,187.305 217.801 C 187.305 214.513,187.368 213.294,187.549 213.107 C 187.920 212.723,190.345 212.930,191.309 213.428 M117.451 216.759 C 118.188 218.791,118.206 218.750,116.602 218.750 C 115.037 218.750,115.078 218.824,115.729 217.172 C 116.759 214.562,116.662 214.585,117.451 216.759 M176.953 215.308 C 176.953 215.457,177.167 216.050,177.429 216.627 C 177.691 217.204,177.964 217.917,178.036 218.213 L 178.167 218.750 176.791 218.750 C 175.057 218.750,175.053 218.741,175.909 216.720 C 176.566 215.169,176.953 214.645,176.953 215.308 M211.175 230.207 C 208.572 230.762,208.534 233.935,211.109 235.788 C 212.508 236.796,213.086 237.589,213.086 238.503 C 213.086 240.452,210.224 240.651,209.537 238.751 C 209.211 237.850,209.054 237.915,208.932 239.001 C 208.796 240.209,208.890 240.392,209.736 240.567 C 214.558 241.564,216.239 237.563,212.227 234.633 C 210.259 233.196,209.834 232.195,210.804 231.284 C 211.696 230.446,212.921 230.874,213.807 232.332 C 214.003 232.655,214.041 232.526,214.051 231.494 C 214.061 230.430,214.016 230.273,213.699 230.273 C 213.499 230.273,212.950 230.237,212.478 230.193 C 212.007 230.148,211.420 230.155,211.175 230.207 M183.594 230.399 C 184.557 230.796,184.570 230.862,184.570 235.267 L 184.570 239.418 183.969 239.924 L 183.368 240.430 184.995 240.475 C 190.938 240.642,193.222 239.167,193.222 235.160 C 193.222 231.793,191.299 230.428,186.426 230.337 C 184.707 230.305,183.433 230.333,183.594 230.399 M197.177 230.753 C 197.655 231.231,197.656 231.240,197.643 235.196 C 197.628 239.478,197.584 239.757,196.870 240.139 C 195.540 240.851,201.410 240.776,203.027 240.061 C 207.651 238.015,207.168 231.522,202.315 230.481 C 201.783 230.367,200.302 230.273,199.023 230.273 L 196.697 230.273 197.177 230.753 M188.867 231.295 C 193.362 232.639,192.442 239.828,187.774 239.841 C 185.924 239.846,185.951 239.920,186.081 235.117 C 186.209 230.412,186.155 230.485,188.867 231.295 M201.393 231.144 C 205.072 231.742,205.903 237.830,202.539 239.541 C 201.404 240.119,199.238 240.017,199.208 239.385 C 199.202 239.261,199.207 237.361,199.218 235.161 C 199.241 230.907,199.270 230.785,200.195 230.944 C 200.464 230.990,201.003 231.080,201.393 231.144 M194.329 239.950 C 194.149 240.167,194.138 240.310,194.292 240.464 C 194.600 240.772,195.117 240.509,195.117 240.045 C 195.117 239.576,194.683 239.523,194.329 239.950 M207.706 261.230 C 207.495 261.962,207.476 263.737,207.683 263.407 C 208.354 262.335,208.612 262.143,209.562 262.013 C 210.095 261.940,210.798 261.938,211.125 262.010 L 211.719 262.140 211.719 266.929 L 211.719 271.718 211.112 272.285 L 210.506 272.852 212.723 272.851 L 214.941 272.850 214.312 272.466 C 213.966 272.255,213.614 271.838,213.531 271.539 C 213.326 270.807,213.336 262.380,213.542 262.174 C 214.215 261.502,217.188 262.353,217.188 263.218 C 217.188 263.360,217.275 263.477,217.383 263.477 C 217.491 263.477,217.578 262.958,217.578 262.311 L 217.578 261.146 212.670 261.091 C 209.518 261.055,207.742 261.105,207.706 261.230 M142.557 261.699 L 143.164 262.266 143.164 266.950 L 143.164 271.633 142.541 272.242 L 141.918 272.852 144.027 272.852 L 146.135 272.852 145.528 272.285 L 144.922 271.718 144.922 269.474 C 144.922 266.818,144.733 266.991,147.623 266.995 C 150.797 266.999,150.586 266.822,150.586 269.476 L 150.586 271.718 149.979 272.285 L 149.373 272.852 151.591 272.845 C 153.599 272.840,153.772 272.812,153.418 272.549 C 152.448 271.828,152.377 271.696,152.236 270.386 C 151.795 266.266,152.339 261.523,153.253 261.523 C 153.397 261.523,153.516 261.436,153.516 261.328 C 153.516 261.210,152.676 261.133,151.387 261.133 L 149.258 261.133 149.922 261.797 C 150.585 262.460,150.586 262.464,150.586 264.336 L 150.586 266.211 147.754 266.211 L 144.922 266.211 144.920 264.209 L 144.918 262.207 145.555 261.675 L 146.191 261.143 144.071 261.138 L 141.951 261.133 142.557 261.699 M157.625 261.697 L 158.301 262.262 158.301 266.958 L 158.301 271.654 157.727 272.253 L 157.153 272.852 160.876 272.852 L 164.598 272.852 164.839 271.924 C 164.972 271.414,165.121 270.842,165.171 270.654 C 165.316 270.104,164.958 270.261,164.570 270.918 C 164.117 271.685,163.199 272.070,161.823 272.070 C 160.165 272.070,159.961 271.770,159.961 269.336 L 159.961 267.383 161.614 267.383 C 163.068 267.383,163.293 267.430,163.477 267.773 C 163.829 268.432,164.023 268.214,164.093 267.080 C 164.156 266.070,164.133 266.004,163.770 266.121 C 160.406 267.209,159.491 266.374,160.121 262.793 C 160.334 261.582,162.791 261.544,163.903 262.733 L 164.453 263.323 164.453 262.228 L 164.453 261.133 160.701 261.133 L 156.948 261.133 157.625 261.697 M167.634 261.551 C 168.402 262.124,168.784 262.964,170.630 268.141 C 171.528 270.658,172.308 272.764,172.365 272.820 C 172.595 273.051,172.865 272.401,173.923 269.075 C 174.532 267.158,175.060 265.620,175.095 265.657 C 175.131 265.693,175.599 266.909,176.135 268.359 C 177.469 271.968,177.891 272.897,178.157 272.808 C 178.282 272.767,179.067 270.703,179.900 268.223 C 181.629 263.079,182.024 262.207,182.823 261.752 C 183.734 261.234,183.521 261.133,181.514 261.133 L 179.630 261.133 180.147 261.612 C 180.432 261.875,180.664 262.211,180.664 262.359 C 180.664 262.865,178.566 269.629,178.409 269.629 C 178.323 269.629,177.870 268.574,177.403 267.285 C 175.487 262.005,175.323 261.624,175.175 262.129 C 174.412 264.742,172.748 269.503,172.638 269.387 C 172.562 269.305,172.315 268.574,172.090 267.763 C 171.865 266.951,171.417 265.506,171.094 264.552 C 170.395 262.483,170.378 262.175,170.932 261.585 L 171.357 261.133 169.223 261.139 L 167.090 261.145 167.634 261.551 M186.453 261.779 L 187.158 262.425 187.182 267.073 L 187.207 271.721 186.526 272.291 L 185.844 272.860 189.736 272.807 L 193.627 272.754 193.873 271.790 C 194.175 270.605,194.045 270.329,193.506 271.013 C 192.952 271.718,192.023 272.070,190.716 272.070 C 188.762 272.070,188.867 272.363,188.867 266.905 L 188.867 262.144 189.468 261.638 L 190.069 261.133 187.908 261.133 L 185.748 261.133 186.453 261.779 M196.680 261.328 C 196.680 261.436,196.805 261.523,196.958 261.523 C 197.926 261.523,198.070 262.295,198.008 267.150 L 197.949 271.723 197.273 272.287 L 196.597 272.852 200.452 272.852 C 204.812 272.852,204.468 272.987,204.778 271.143 C 204.946 270.141,204.685 270.059,204.248 270.977 C 203.708 272.108,200.578 272.539,199.876 271.579 C 199.567 271.157,199.494 267.477,199.790 267.294 C 200.189 267.048,202.794 267.443,203.156 267.804 C 203.679 268.328,203.711 268.281,203.711 266.992 C 203.711 265.701,203.702 265.689,203.041 266.122 C 202.706 266.342,202.189 266.408,201.144 266.366 L 199.707 266.309 199.651 264.503 C 199.581 262.247,199.734 261.914,200.837 261.915 C 202.047 261.917,203.057 262.254,203.486 262.800 C 204.026 263.486,204.102 263.414,204.102 262.207 L 204.102 261.133 200.391 261.133 C 198.047 261.133,196.680 261.205,196.680 261.328 M227.940 261.828 L 228.613 262.523 228.613 266.759 C 228.613 271.570,228.563 271.876,227.687 272.438 L 227.051 272.845 229.199 272.837 C 230.945 272.830,231.277 272.785,230.970 272.596 C 229.705 271.818,229.688 271.751,229.688 267.706 C 229.688 265.659,229.758 264.068,229.844 264.170 C 229.930 264.272,230.343 264.795,230.763 265.332 C 231.736 266.577,236.504 272.000,237.237 272.695 L 237.793 273.222 237.793 267.746 L 237.793 262.271 238.330 261.809 C 239.067 261.175,239.088 261.186,237.077 261.166 L 235.287 261.148 235.954 261.705 L 236.621 262.262 236.688 265.359 C 236.796 270.409,237.032 270.265,234.180 266.894 C 232.837 265.307,231.219 263.361,230.585 262.571 L 229.432 261.133 228.349 261.133 L 227.267 261.133 227.940 261.828 M240.997 261.340 C 240.873 261.416,241.017 261.555,241.339 261.668 C 242.311 262.010,243.411 263.376,245.321 266.615 C 246.381 268.413,246.227 271.757,245.051 272.474 L 244.434 272.850 246.777 272.839 C 248.668 272.831,249.050 272.784,248.756 272.596 C 247.678 271.909,247.628 271.813,247.520 270.210 C 247.378 268.133,247.544 267.646,249.392 264.696 C 250.588 262.786,251.141 262.083,251.669 261.800 L 252.367 261.426 250.646 261.311 C 248.636 261.177,248.515 261.210,249.047 261.743 C 249.574 262.269,249.452 262.714,248.195 264.870 C 247.023 266.879,247.203 266.908,245.823 264.491 C 244.767 262.643,244.520 261.810,244.911 261.416 C 245.123 261.202,241.339 261.128,240.997 261.340 " stroke="none" fill="#0e5a7a" fill-rule="evenodd"></path><path id="path1" d="M0.000 200.000 L 0.000 400.000 200.000 400.000 L 400.000 400.000 400.000 200.000 L 400.000 0.000 200.000 0.000 L 0.000 0.000 0.000 200.000 M227.637 116.405 C 236.481 119.228,240.409 129.232,238.373 143.750 C 237.863 147.390,235.393 156.164,234.383 157.924 C 234.194 158.253,233.884 159.000,233.695 159.584 C 233.030 161.631,232.812 161.309,233.298 158.998 C 234.426 153.633,234.910 142.676,234.208 138.379 C 232.632 128.735,228.919 123.834,222.926 123.489 C 219.715 123.305,218.189 123.832,212.109 127.228 C 205.233 131.068,201.343 130.992,192.461 126.842 C 177.200 119.711,169.094 123.448,168.674 137.811 C 168.475 144.608,169.664 150.500,173.889 163.672 C 175.748 169.466,176.453 171.883,176.963 174.219 C 177.186 175.239,177.491 176.602,177.642 177.246 C 177.792 177.891,178.318 180.835,178.811 183.789 C 181.076 197.350,181.887 200.309,183.818 202.053 C 186.043 204.064,186.861 202.390,187.205 195.117 C 188.078 176.694,192.248 168.359,200.591 168.359 C 207.232 168.359,210.953 174.126,212.501 186.816 C 212.619 187.783,212.751 188.838,212.794 189.160 C 212.837 189.482,212.922 190.186,212.983 190.723 C 213.852 198.362,215.310 202.847,217.428 204.395 C 218.182 204.946,217.870 205.315,216.557 205.424 C 214.300 205.611,211.997 203.571,210.368 199.939 C 209.328 197.622,208.722 195.416,206.629 186.328 C 204.461 176.917,201.743 173.519,198.188 175.774 C 195.730 177.333,194.102 181.611,191.498 193.359 C 189.358 203.013,187.365 206.159,183.398 206.148 C 177.815 206.133,175.440 201.286,171.391 181.641 C 170.055 175.159,169.228 172.116,166.796 164.746 C 165.049 159.454,164.582 157.894,163.301 153.096 C 158.936 136.735,161.469 123.340,169.802 118.715 C 176.232 115.145,183.095 116.014,191.797 121.498 C 198.710 125.854,201.036 125.733,209.684 120.560 C 217.149 116.096,222.668 114.819,227.637 116.405 M225.402 126.178 C 231.812 129.414,234.218 141.914,230.883 154.656 C 230.006 158.007,229.804 157.962,230.105 154.482 C 230.390 151.199,230.201 141.510,229.805 139.063 C 228.600 131.616,225.593 127.134,221.157 126.171 C 218.966 125.695,219.511 125.354,222.280 125.468 C 223.913 125.536,224.307 125.625,225.402 126.178 M117.623 212.744 C 117.911 213.416,118.902 215.754,119.826 217.940 C 121.841 222.706,121.768 222.583,122.781 222.970 C 124.551 223.646,125.146 222.007,126.507 212.695 C 126.770 210.893,127.058 211.231,129.285 215.966 C 130.409 218.356,131.388 220.246,131.461 220.166 C 131.534 220.085,132.230 218.657,133.009 216.992 C 133.787 215.327,134.683 213.416,135.000 212.744 C 135.914 210.804,135.829 210.583,136.826 217.470 C 137.535 222.365,137.762 223.047,138.682 223.047 C 139.063 223.047,139.514 223.507,139.321 223.700 C 139.251 223.770,138.246 223.828,137.088 223.828 C 134.950 223.828,134.359 223.632,135.029 223.142 C 135.476 222.815,135.205 218.370,134.642 216.797 C 134.532 216.491,133.571 218.421,132.039 222.021 C 131.571 223.123,131.113 224.023,131.022 224.023 C 130.829 224.023,128.990 220.200,127.988 217.716 C 127.608 216.771,127.274 216.024,127.248 216.056 C 127.201 216.114,126.478 220.561,126.296 221.920 C 126.210 222.557,126.270 222.699,126.773 223.058 C 127.089 223.283,127.298 223.549,127.237 223.648 C 127.038 223.970,118.738 223.830,118.613 223.502 C 118.492 223.189,119.135 222.630,119.416 222.803 C 119.516 222.865,119.553 222.791,119.499 222.639 C 119.444 222.488,119.193 221.770,118.941 221.045 L 118.482 219.727 116.709 219.727 L 114.935 219.727 114.402 221.143 C 113.886 222.516,114.002 223.348,114.655 222.945 C 114.907 222.789,115.316 223.434,115.102 223.648 C 114.750 224.000,110.660 223.786,110.588 223.412 C 110.544 223.184,110.723 223.057,111.222 222.964 C 112.143 222.791,114.867 217.241,116.670 211.865 C 116.866 211.281,117.082 211.480,117.623 212.744 M178.064 213.288 C 178.436 214.198,179.401 216.567,180.207 218.554 C 181.833 222.560,181.830 222.555,182.779 223.014 C 183.941 223.576,183.624 223.727,181.164 223.786 C 178.271 223.854,178.071 223.794,178.852 223.091 C 179.430 222.570,179.438 222.540,179.203 221.680 C 178.694 219.811,178.677 219.793,177.310 219.683 C 175.136 219.509,174.852 219.618,174.513 220.761 C 174.087 222.194,174.133 222.521,174.815 222.924 C 175.550 223.358,175.468 223.734,174.642 223.720 C 171.423 223.663,171.094 223.628,171.094 223.340 C 171.094 223.179,171.210 223.047,171.353 223.047 C 171.730 223.047,172.349 222.307,172.903 221.191 C 173.319 220.354,176.454 212.888,176.825 211.849 C 177.050 211.221,177.368 211.592,178.064 213.288 M168.916 211.933 C 169.526 212.146,169.531 212.159,169.531 213.496 C 169.531 215.066,169.238 215.265,168.555 214.160 C 167.757 212.870,166.433 212.473,165.625 213.281 C 164.744 214.162,165.186 215.333,166.845 216.519 C 169.366 218.322,170.143 219.653,169.701 221.409 C 168.891 224.626,162.891 225.059,162.891 221.901 C 162.891 220.150,163.410 219.739,163.857 221.136 C 164.362 222.717,166.110 223.358,167.229 222.373 C 168.487 221.266,168.002 219.993,165.697 218.353 C 163.427 216.738,162.858 215.597,163.490 213.929 C 164.156 212.169,166.802 211.196,168.916 211.933 M215.559 212.023 C 216.000 212.152,216.199 213.269,216.052 214.795 C 215.971 215.634,215.818 215.597,215.090 214.564 C 213.515 212.329,209.864 212.226,208.385 214.374 C 206.035 217.790,208.123 222.446,212.086 222.626 C 213.856 222.706,214.019 222.590,214.192 221.131 C 214.363 219.690,214.185 219.211,213.379 218.945 C 212.615 218.693,212.454 218.170,213.135 218.153 C 216.430 218.073,217.479 218.114,217.461 218.324 C 217.416 218.858,217.371 218.945,217.139 218.948 C 216.482 218.956,216.315 219.335,216.190 221.107 C 216.050 223.084,216.049 223.085,214.564 223.536 C 208.880 225.260,203.850 220.988,205.548 215.877 C 206.616 212.661,211.409 210.816,215.559 212.023 M253.401 212.259 C 257.347 213.651,258.347 219.146,255.224 222.269 C 252.333 225.160,246.670 224.314,245.189 220.769 C 242.910 215.315,247.776 210.273,253.401 212.259 M145.312 212.240 C 145.458 212.384,144.699 212.891,144.338 212.891 C 143.609 212.891,143.555 213.239,143.555 217.880 C 143.555 222.817,143.578 222.921,144.727 223.078 C 145.001 223.115,145.215 223.273,145.215 223.438 C 145.215 223.681,144.762 223.740,142.529 223.785 C 140.361 223.829,139.844 223.788,139.844 223.572 C 139.844 223.330,140.664 222.802,141.094 222.768 C 141.482 222.737,141.575 221.790,141.588 217.725 C 141.603 213.052,141.514 212.695,140.332 212.695 C 139.869 212.695,139.678 212.340,139.979 212.039 C 140.126 211.892,145.152 212.081,145.312 212.240 M192.546 212.518 C 197.347 214.311,196.881 221.261,191.826 223.279 C 190.436 223.833,183.887 223.975,183.887 223.450 C 183.887 223.296,184.164 223.098,184.503 223.010 C 185.434 222.768,185.547 222.176,185.547 217.536 C 185.547 213.379,185.443 212.698,184.808 212.692 C 184.298 212.688,183.915 212.379,184.083 212.108 C 184.372 211.641,191.065 211.966,192.546 212.518 M203.090 212.384 C 203.133 212.595,203.012 212.695,202.715 212.695 C 201.620 212.695,201.563 212.951,201.563 217.790 C 201.563 222.663,201.564 222.668,202.771 223.089 C 204.233 223.599,203.405 223.860,200.537 223.794 C 197.540 223.726,197.131 223.552,198.438 222.900 C 199.323 222.458,199.363 222.235,199.388 217.676 C 199.411 213.539,199.312 213.104,198.288 212.801 C 197.730 212.636,197.496 212.335,197.737 212.093 C 198.011 211.820,203.031 212.093,203.090 212.384 M224.219 212.305 C 224.219 212.586,224.089 212.695,223.754 212.695 C 222.991 212.695,222.811 213.130,222.816 214.961 C 222.822 217.097,222.699 217.014,225.797 216.949 L 228.418 216.895 228.475 215.262 C 228.540 213.393,228.279 212.761,227.397 212.660 C 227.073 212.623,226.855 212.480,226.855 212.305 C 226.855 211.861,232.291 211.868,232.377 212.311 C 232.417 212.520,232.164 212.683,231.539 212.850 L 230.644 213.090 230.703 217.791 C 230.767 222.928,230.796 223.047,231.971 223.047 C 232.295 223.047,232.422 223.159,232.422 223.447 C 232.422 223.832,232.322 223.847,229.939 223.816 C 226.749 223.775,226.187 223.567,227.630 222.965 C 228.463 222.617,228.549 222.308,228.475 219.922 L 228.418 218.066 225.636 218.066 L 222.854 218.066 222.853 220.233 C 222.851 222.590,222.995 222.937,224.023 223.078 C 224.298 223.115,224.512 223.273,224.512 223.438 C 224.512 223.684,224.079 223.730,221.794 223.730 C 218.946 223.730,218.237 223.506,219.631 223.046 C 220.627 222.718,220.703 222.363,220.703 218.078 C 220.703 213.419,220.653 213.127,219.795 212.768 C 219.153 212.500,219.011 212.304,219.271 212.044 C 219.646 211.669,224.219 211.910,224.219 212.305 M240.766 212.363 C 243.951 214.069,241.776 219.916,238.295 219.006 C 237.802 218.877,237.755 218.359,238.237 218.359 C 238.856 218.359,240.015 217.222,240.237 216.396 C 240.690 214.715,239.616 213.086,238.054 213.086 L 237.271 213.086 237.409 217.725 C 237.556 222.650,237.619 222.952,238.544 223.085 C 238.773 223.118,238.991 223.301,239.027 223.492 C 239.088 223.813,238.892 223.835,236.392 223.785 C 233.551 223.728,232.871 223.456,234.336 222.962 C 235.317 222.632,235.345 222.486,235.349 217.736 C 235.352 212.926,235.296 212.695,234.136 212.695 C 233.785 212.695,233.666 212.299,233.936 212.026 C 234.242 211.715,240.095 212.003,240.766 212.363 M264.022 212.336 C 264.065 212.559,263.904 212.699,263.501 212.788 C 262.492 213.009,262.457 213.163,262.530 217.035 C 262.621 221.835,263.188 222.782,265.869 222.607 C 268.120 222.460,268.552 221.524,268.554 216.792 C 268.555 213.258,268.406 212.695,267.469 212.695 C 267.120 212.695,266.992 212.589,266.992 212.298 C 266.992 211.737,271.338 211.784,271.446 212.347 C 271.490 212.577,271.340 212.722,270.960 212.813 C 269.928 213.060,269.922 213.084,269.921 216.772 C 269.919 222.508,268.900 224.023,265.042 224.023 C 261.352 224.023,260.355 222.394,260.353 216.357 C 260.351 213.255,260.172 212.695,259.180 212.695 C 258.829 212.695,258.645 212.318,258.881 212.083 C 259.173 211.790,263.962 212.026,264.022 212.336 M280.002 212.515 C 282.280 213.644,282.309 216.522,280.055 217.688 C 279.270 218.094,279.319 218.248,280.835 220.119 C 282.387 222.035,283.068 222.694,283.887 223.074 C 284.830 223.511,284.572 223.726,283.033 223.788 C 281.307 223.858,281.424 223.942,279.159 221.004 C 276.639 217.735,276.417 217.703,276.624 220.642 C 276.746 222.368,276.923 222.776,277.678 223.062 C 278.946 223.545,278.172 223.828,275.586 223.828 C 273.206 223.828,273.047 223.804,273.047 223.450 C 273.047 223.185,273.204 223.055,273.579 223.011 C 274.506 222.904,274.603 222.395,274.606 217.651 C 274.610 212.984,274.597 212.925,273.549 212.813 C 272.921 212.746,272.771 212.602,272.921 212.209 C 273.133 211.657,278.760 211.899,280.002 212.515 M153.575 212.502 C 155.647 213.476,155.527 216.242,153.355 217.564 L 152.577 218.037 153.661 219.419 C 155.277 221.479,156.643 222.822,157.365 223.060 C 158.501 223.435,158.176 223.828,156.729 223.828 C 154.741 223.828,154.414 223.581,151.826 220.117 L 150.293 218.066 150.236 220.020 C 150.166 222.406,150.246 222.761,150.929 223.088 C 151.924 223.565,151.411 223.730,148.755 223.785 C 146.303 223.835,146.136 223.815,146.042 223.457 C 145.973 223.193,146.023 223.107,146.205 223.177 C 146.608 223.331,147.798 222.874,147.968 222.500 C 148.050 222.318,148.154 220.225,148.199 217.851 L 148.279 213.534 147.746 213.115 C 147.453 212.884,147.005 212.695,146.751 212.695 C 146.471 212.695,146.289 212.580,146.289 212.402 C 146.289 211.896,152.466 211.981,153.575 212.502 M249.098 213.254 C 245.861 214.767,246.131 220.952,249.501 222.483 C 252.987 224.067,255.938 220.461,254.656 216.183 C 253.963 213.868,251.058 212.337,249.098 213.254 M150.326 213.216 C 149.948 213.593,150.192 217.578,150.592 217.578 C 152.636 217.578,153.688 215.172,152.266 213.750 C 151.635 213.119,150.684 212.858,150.326 213.216 M187.500 217.669 C 187.500 222.988,187.404 222.758,189.557 222.621 C 195.649 222.233,194.942 213.110,188.818 213.090 L 187.500 213.086 187.500 217.669 M276.691 213.232 C 276.641 213.313,276.614 214.302,276.631 215.430 L 276.660 217.480 277.539 217.440 C 279.441 217.353,280.215 215.137,278.828 213.750 C 278.187 213.109,276.951 212.809,276.691 213.232 M116.018 216.839 C 115.772 217.514,115.530 218.176,115.480 218.311 C 115.413 218.489,115.708 218.555,116.581 218.555 C 117.947 218.555,117.938 218.574,117.322 216.909 C 116.758 215.383,116.551 215.372,116.018 216.839 M176.101 216.772 C 175.339 218.471,175.369 218.555,176.758 218.555 C 178.107 218.555,178.097 218.580,177.407 216.898 C 176.769 215.345,176.742 215.343,176.101 216.772 M202.246 230.288 C 207.368 231.293,207.954 237.908,203.125 240.210 C 201.432 241.018,195.407 240.941,196.582 240.127 C 197.480 239.506,197.461 239.611,197.461 235.237 L 197.461 231.037 196.876 230.704 C 196.555 230.521,196.291 230.283,196.290 230.176 C 196.289 229.931,200.867 230.017,202.246 230.288 M213.232 230.009 L 214.258 230.133 214.258 231.363 C 214.258 232.841,214.045 233.049,213.476 232.128 C 212.799 231.032,211.655 230.698,210.904 231.378 C 210.232 231.986,210.445 232.792,211.537 233.776 C 214.151 236.130,214.418 236.429,214.555 237.162 C 215.068 239.898,212.554 241.645,209.539 240.647 C 208.677 240.362,208.614 240.226,208.740 238.914 C 208.857 237.704,209.231 237.558,209.649 238.559 C 210.428 240.423,212.891 240.318,212.891 238.421 C 212.891 237.597,212.243 236.808,210.476 235.477 C 208.224 233.782,208.563 230.839,211.097 230.074 C 211.779 229.869,212.005 229.862,213.232 230.009 M190.735 230.859 C 194.547 232.804,194.224 238.499,190.204 240.229 C 189.310 240.613,188.886 240.657,186.171 240.642 C 183.383 240.626,182.502 240.521,183.167 240.285 C 184.311 239.878,184.368 239.647,184.397 235.324 C 184.426 231.056,184.407 230.936,183.672 230.657 C 182.465 230.198,183.229 230.038,186.299 230.106 C 189.394 230.176,189.396 230.176,190.735 230.859 M186.599 231.204 C 186.298 231.404,186.102 239.149,186.392 239.439 C 186.785 239.832,188.894 239.682,189.746 239.200 C 192.098 237.867,192.202 233.566,189.919 231.985 C 188.997 231.347,187.070 230.893,186.599 231.204 M199.362 235.104 C 199.238 239.900,199.271 239.990,201.071 239.753 C 203.384 239.449,204.395 238.199,204.395 235.643 C 204.395 232.858,203.198 231.494,200.466 231.168 L 199.467 231.048 199.362 235.104 M195.313 239.928 C 195.313 240.677,194.740 241.041,194.229 240.617 C 193.825 240.282,193.878 239.913,194.379 239.562 C 195.061 239.084,195.313 239.183,195.313 239.928 M146.289 261.225 C 146.289 261.384,146.025 261.650,145.703 261.816 L 145.117 262.119 145.117 264.116 L 145.117 266.113 147.754 266.054 L 150.391 265.994 150.391 264.274 C 150.391 262.485,150.010 261.523,149.302 261.523 C 149.149 261.523,149.023 261.392,149.023 261.230 C 149.023 260.986,149.414 260.938,151.367 260.938 C 153.874 260.938,154.258 261.113,153.140 261.749 C 151.587 262.633,152.079 272.415,153.678 272.454 C 153.822 272.458,153.902 272.571,153.858 272.705 C 153.726 273.103,149.219 273.157,149.219 272.760 C 149.219 272.596,149.303 272.461,149.406 272.461 C 150.120 272.461,150.391 271.618,150.391 269.397 L 150.391 267.188 147.754 267.188 L 145.117 267.188 145.117 269.434 C 145.117 271.703,145.362 272.461,146.094 272.461 C 146.201 272.461,146.289 272.593,146.289 272.754 C 146.289 272.997,145.909 273.047,144.043 273.047 C 141.600 273.047,141.453 272.964,142.383 272.116 C 143.122 271.443,143.287 269.777,143.070 265.157 L 142.926 262.066 142.362 261.746 C 141.261 261.119,141.639 260.938,144.043 260.938 C 145.892 260.938,146.289 260.988,146.289 261.225 M164.648 262.207 C 164.648 263.573,164.326 263.918,163.908 263.000 C 163.430 261.950,160.478 261.722,160.278 262.720 C 160.023 263.998,160.136 266.161,160.465 266.288 C 160.878 266.446,163.462 266.198,163.592 265.987 C 163.649 265.895,163.822 265.820,163.976 265.820 C 164.310 265.820,164.389 268.060,164.063 268.262 C 163.826 268.408,163.035 267.889,163.217 267.707 C 163.288 267.636,162.629 267.578,161.751 267.578 L 160.156 267.578 160.156 269.524 C 160.156 271.790,160.223 271.875,161.990 271.875 C 163.341 271.875,163.961 271.597,164.479 270.758 C 165.240 269.528,165.553 270.480,164.972 272.255 L 164.745 272.949 160.888 273.002 C 157.095 273.054,157.031 273.048,157.031 272.649 C 157.031 272.425,157.112 272.293,157.211 272.354 C 157.991 272.836,158.211 271.546,158.158 266.819 L 158.105 262.215 157.478 261.820 C 156.219 261.029,156.556 260.938,160.742 260.938 L 164.648 260.938 164.648 262.207 M171.368 261.405 C 171.299 261.631,171.121 261.955,170.973 262.125 C 170.825 262.294,170.703 262.532,170.703 262.653 C 170.703 262.982,172.500 268.626,172.665 268.816 C 172.803 268.974,175.000 262.584,175.000 262.023 C 175.000 261.868,175.085 261.689,175.189 261.625 C 175.419 261.483,175.689 262.105,177.089 266.016 C 178.334 269.490,178.400 269.601,178.683 268.719 C 180.404 263.356,180.639 262.070,179.974 261.635 C 179.174 261.110,179.590 260.938,181.652 260.938 C 183.781 260.938,184.186 261.207,182.989 261.826 C 182.210 262.229,181.721 263.324,179.878 268.799 C 178.761 272.117,178.374 273.047,178.114 273.047 C 177.809 273.047,176.845 270.878,175.575 267.334 C 175.124 266.078,174.898 266.442,173.637 270.459 C 172.499 274.084,172.600 274.155,170.507 268.262 C 169.743 266.113,168.978 263.976,168.805 263.512 C 168.484 262.648,167.698 261.660,167.202 261.495 C 166.417 261.235,167.386 261.010,169.329 261.003 C 171.439 260.995,171.490 261.005,171.368 261.405 M190.118 261.102 C 190.173 261.192,189.959 261.458,189.641 261.694 L 189.063 262.121 189.063 266.897 L 189.063 271.672 189.556 271.796 C 190.955 272.147,192.611 271.791,193.304 270.989 C 193.963 270.226,194.471 270.283,194.245 271.094 C 194.201 271.255,194.067 271.760,193.949 272.217 L 193.735 273.047 189.739 273.047 C 185.436 273.047,185.428 273.045,186.377 272.252 L 187.012 271.722 187.012 267.126 C 187.012 262.241,186.857 261.523,185.806 261.523 C 185.663 261.523,185.547 261.392,185.547 261.230 C 185.547 260.903,189.919 260.780,190.118 261.102 M204.250 262.109 C 204.300 263.170,203.995 264.065,203.773 263.512 C 203.372 262.514,202.798 262.207,201.335 262.207 L 199.902 262.207 199.902 264.258 L 199.902 266.309 201.270 266.242 C 202.021 266.205,202.831 266.052,203.069 265.900 C 203.788 265.443,203.906 265.564,203.903 266.748 C 203.900 268.130,203.660 268.631,203.263 268.088 C 202.997 267.725,201.749 267.418,200.439 267.394 L 199.805 267.383 199.805 269.322 C 199.805 271.728,199.911 271.875,201.665 271.875 C 203.133 271.875,203.766 271.631,204.129 270.926 C 204.972 269.287,205.300 270.113,204.680 272.314 L 204.474 273.047 200.609 273.047 C 196.259 273.047,196.252 273.045,197.178 272.171 L 197.852 271.536 197.852 266.951 C 197.852 262.039,197.848 262.019,196.826 261.657 C 196.638 261.590,196.484 261.401,196.484 261.237 C 196.484 260.976,196.987 260.944,200.342 260.986 L 204.199 261.035 204.250 262.109 M217.773 262.305 C 217.773 263.853,217.533 264.051,216.892 263.030 C 216.546 262.478,216.353 262.382,215.293 262.230 C 213.308 261.947,213.426 261.285,213.659 271.344 C 213.669 271.752,213.843 271.989,214.355 272.291 C 215.384 272.898,215.039 273.047,212.598 273.047 C 210.356 273.047,209.712 272.850,210.612 272.440 C 211.619 271.981,211.743 271.174,211.586 266.110 L 211.461 262.109 210.431 262.109 C 209.026 262.109,208.455 262.368,208.068 263.179 C 207.667 264.020,207.148 264.122,207.296 263.330 C 207.351 263.035,207.452 262.375,207.519 261.865 L 207.641 260.938 212.707 260.938 L 217.773 260.938 217.773 262.305 M230.271 261.963 C 230.718 262.527,232.286 264.409,233.755 266.145 L 236.426 269.303 236.484 266.341 C 236.555 262.659,236.476 262.175,235.732 261.752 C 234.824 261.235,235.140 261.077,237.116 261.055 C 238.725 261.038,238.968 261.079,239.025 261.377 C 239.065 261.583,238.972 261.719,238.791 261.719 C 238.090 261.719,237.998 262.440,237.993 268.018 C 237.991 270.998,237.942 273.437,237.885 273.437 C 237.631 273.438,233.413 268.811,231.151 266.052 L 229.980 264.624 229.926 267.907 C 229.866 271.492,229.954 271.891,230.885 272.276 C 232.127 272.791,231.566 273.047,229.199 273.047 C 226.856 273.047,226.280 272.801,227.524 272.331 C 228.368 272.012,228.513 271.179,228.515 266.631 L 228.516 262.656 227.832 261.973 C 226.909 261.050,226.960 260.938,228.304 260.938 L 229.459 260.938 230.271 261.963 M245.313 261.328 C 245.313 261.436,245.225 261.523,245.117 261.523 C 244.649 261.523,244.998 262.735,245.946 264.406 C 247.186 266.593,247.021 266.587,248.228 264.479 C 249.325 262.562,249.394 262.255,248.838 261.780 C 248.221 261.252,248.545 261.133,250.597 261.133 C 252.193 261.133,252.539 261.185,252.539 261.426 C 252.539 261.587,252.414 261.719,252.261 261.719 C 250.946 261.719,247.656 267.223,247.656 269.422 C 247.656 271.337,247.802 271.787,248.556 272.193 C 249.807 272.866,249.431 273.047,246.777 273.047 C 244.737 273.047,244.336 272.999,244.336 272.754 C 244.336 272.593,244.468 272.461,244.629 272.461 C 245.589 272.461,246.159 270.205,245.718 268.150 C 245.313 266.260,242.592 262.365,241.300 261.825 C 240.070 261.311,240.500 261.133,242.969 261.133 C 244.401 261.133,245.313 261.209,245.313 261.328 " stroke="none" fill="#fbfbfb" fill-rule="evenodd"></path><path id="path2" d="M222.806 115.962 C 223.157 116.005,223.685 116.004,223.978 115.960 C 224.272 115.915,223.984 115.880,223.340 115.881 C 222.695 115.882,222.455 115.918,222.806 115.962 M178.369 116.736 C 178.557 116.785,178.865 116.785,179.053 116.736 C 179.241 116.687,179.087 116.647,178.711 116.647 C 178.335 116.647,178.181 116.687,178.369 116.736 M233.195 119.971 C 234.004 120.833,234.180 120.988,234.180 120.841 C 234.180 120.810,233.762 120.393,233.252 119.914 L 232.324 119.043 233.195 119.971 M179.541 123.189 C 179.944 123.231,180.603 123.231,181.006 123.189 C 181.409 123.147,181.079 123.113,180.273 123.113 C 179.468 123.113,179.138 123.147,179.541 123.189 M199.072 124.749 C 199.368 124.794,199.851 124.794,200.146 124.749 C 200.442 124.705,200.200 124.668,199.609 124.668 C 199.019 124.668,198.777 124.705,199.072 124.749 M221.143 125.525 C 221.331 125.574,221.638 125.574,221.826 125.525 C 222.014 125.476,221.860 125.436,221.484 125.436 C 221.108 125.436,220.955 125.476,221.143 125.525 M203.080 130.024 C 203.431 130.068,203.958 130.067,204.252 130.022 C 204.545 129.978,204.258 129.942,203.613 129.943 C 202.969 129.944,202.729 129.981,203.080 130.024 M238.746 136.523 C 238.746 137.759,238.777 138.264,238.816 137.646 C 238.855 137.029,238.855 136.018,238.816 135.400 C 238.777 134.783,238.746 135.288,238.746 136.523 M168.422 138.672 C 168.422 139.370,168.457 139.656,168.501 139.307 C 168.544 138.958,168.544 138.386,168.501 138.037 C 168.457 137.688,168.422 137.974,168.422 138.672 M238.522 140.625 C 238.522 141.001,238.562 141.155,238.611 140.967 C 238.660 140.779,238.660 140.471,238.611 140.283 C 238.562 140.095,238.522 140.249,238.522 140.625 M232.081 140.918 C 232.083 141.348,232.123 141.500,232.169 141.257 C 232.216 141.015,232.214 140.663,232.165 140.476 C 232.117 140.290,232.078 140.488,232.081 140.918 M234.616 141.992 C 234.616 142.368,234.656 142.522,234.705 142.334 C 234.754 142.146,234.754 141.838,234.705 141.650 C 234.656 141.462,234.616 141.616,234.616 141.992 M230.327 143.750 C 230.327 144.233,230.365 144.431,230.411 144.189 C 230.458 143.948,230.458 143.552,230.411 143.311 C 230.365 143.069,230.327 143.267,230.327 143.750 M232.081 145.605 C 232.083 146.035,232.123 146.188,232.169 145.945 C 232.216 145.702,232.214 145.350,232.165 145.164 C 232.117 144.977,232.078 145.176,232.081 145.605 M234.624 148.828 C 234.624 149.312,234.662 149.509,234.708 149.268 C 234.755 149.026,234.755 148.630,234.708 148.389 C 234.662 148.147,234.624 148.345,234.624 148.828 M230.332 152.539 C 230.332 153.130,230.369 153.372,230.413 153.076 C 230.458 152.781,230.458 152.297,230.413 152.002 C 230.369 151.707,230.332 151.948,230.332 152.539 M193.640 171.338 L 193.066 171.973 193.701 171.399 C 194.050 171.083,194.336 170.798,194.336 170.764 C 194.336 170.613,194.175 170.746,193.640 171.338 M187.155 196.875 C 187.155 197.251,187.195 197.405,187.244 197.217 C 187.293 197.029,187.293 196.721,187.244 196.533 C 187.195 196.345,187.155 196.499,187.155 196.875 M186.999 204.541 L 186.426 205.176 187.061 204.602 C 187.410 204.287,187.695 204.001,187.695 203.967 C 187.695 203.816,187.534 203.949,186.999 204.541 M215.869 205.408 C 216.057 205.457,216.365 205.457,216.553 205.408 C 216.741 205.359,216.587 205.319,216.211 205.319 C 215.835 205.319,215.681 205.359,215.869 205.408 M183.057 206.189 C 183.245 206.238,183.552 206.238,183.740 206.189 C 183.928 206.140,183.774 206.100,183.398 206.100 C 183.022 206.100,182.869 206.140,183.057 206.189 M166.750 211.857 C 166.993 211.904,167.345 211.902,167.532 211.853 C 167.718 211.804,167.520 211.766,167.090 211.768 C 166.660 211.770,166.507 211.810,166.750 211.857 M211.963 211.853 C 212.151 211.903,212.458 211.903,212.646 211.853 C 212.834 211.804,212.681 211.764,212.305 211.764 C 211.929 211.764,211.775 211.804,211.963 211.853 M169.333 213.516 C 169.281 214.237,169.309 214.755,169.395 214.668 C 169.482 214.581,169.525 213.992,169.491 213.359 L 169.429 212.207 169.333 213.516 M211.282 212.833 C 211.525 212.880,211.876 212.878,212.063 212.830 C 212.250 212.781,212.051 212.742,211.621 212.745 C 211.191 212.747,211.039 212.787,211.282 212.833 M150.056 214.160 C 150.057 214.697,150.095 214.894,150.140 214.597 C 150.185 214.300,150.184 213.861,150.137 213.620 C 150.091 213.380,150.054 213.623,150.056 214.160 M143.430 215.234 C 143.430 216.255,143.463 216.672,143.503 216.162 C 143.543 215.652,143.543 214.817,143.503 214.307 C 143.463 213.796,143.430 214.214,143.430 215.234 M185.626 216.504 C 185.626 218.223,185.656 218.900,185.692 218.008 C 185.729 217.117,185.728 215.711,185.692 214.883 C 185.655 214.056,185.626 214.785,185.626 216.504 M230.546 216.113 C 230.546 217.617,230.577 218.207,230.614 217.423 C 230.651 216.640,230.651 215.409,230.613 214.689 C 230.576 213.968,230.546 214.609,230.546 216.113 M262.365 214.551 C 262.366 215.195,262.403 215.435,262.446 215.084 C 262.490 214.733,262.489 214.206,262.444 213.913 C 262.400 213.619,262.364 213.906,262.365 214.551 M201.433 215.234 C 201.433 216.040,201.467 216.370,201.509 215.967 C 201.552 215.564,201.552 214.905,201.509 214.502 C 201.467 214.099,201.433 214.429,201.433 215.234 M187.384 217.188 C 187.384 218.960,187.414 219.685,187.450 218.799 C 187.486 217.913,187.486 216.462,187.450 215.576 C 187.414 214.690,187.384 215.415,187.384 217.188 M268.633 216.895 C 268.633 218.506,268.663 219.139,268.700 218.302 C 268.737 217.464,268.737 216.146,268.700 215.372 C 268.663 214.598,268.633 215.283,268.633 216.895 M269.805 216.992 C 269.805 218.657,269.835 219.338,269.872 218.506 C 269.908 217.673,269.908 216.311,269.872 215.479 C 269.835 214.646,269.805 215.327,269.805 216.992 M228.571 215.332 C 228.573 215.869,228.611 216.066,228.656 215.769 C 228.701 215.472,228.699 215.032,228.653 214.792 C 228.607 214.552,228.570 214.795,228.571 215.332 M163.327 215.234 C 163.327 215.610,163.367 215.764,163.416 215.576 C 163.465 215.388,163.465 215.081,163.416 214.893 C 163.367 214.705,163.327 214.858,163.327 215.234 M220.780 217.871 C 220.780 219.375,220.811 219.964,220.848 219.181 C 220.885 218.397,220.885 217.167,220.848 216.447 C 220.810 215.726,220.780 216.367,220.780 217.871 M150.049 216.699 C 150.051 217.129,150.091 217.282,150.138 217.039 C 150.185 216.796,150.183 216.444,150.134 216.257 C 150.085 216.071,150.047 216.270,150.049 216.699 M195.752 217.480 C 195.755 217.910,195.795 218.063,195.841 217.820 C 195.888 217.577,195.886 217.225,195.837 217.039 C 195.788 216.852,195.750 217.051,195.752 217.480 M207.280 217.578 C 207.280 218.062,207.318 218.259,207.364 218.018 C 207.411 217.776,207.411 217.380,207.364 217.139 C 207.318 216.897,207.280 217.095,207.280 217.578 M215.578 218.302 C 215.821 218.349,216.173 218.347,216.360 218.298 C 216.546 218.249,216.348 218.211,215.918 218.213 C 215.488 218.215,215.335 218.255,215.578 218.302 M115.869 218.697 C 116.272 218.739,116.931 218.739,117.334 218.697 C 117.737 218.655,117.407 218.620,116.602 218.620 C 115.796 218.620,115.466 218.655,115.869 218.697 M228.584 220.313 C 228.584 221.226,228.618 221.599,228.659 221.143 C 228.700 220.686,228.700 219.939,228.659 219.482 C 228.618 219.026,228.584 219.399,228.584 220.313 M230.529 220.410 C 230.530 221.055,230.567 221.295,230.610 220.944 C 230.654 220.593,230.653 220.065,230.608 219.772 C 230.564 219.478,230.528 219.766,230.529 220.410 M115.674 219.675 C 116.184 219.715,117.019 219.715,117.529 219.675 C 118.040 219.635,117.622 219.602,116.602 219.602 C 115.581 219.602,115.164 219.635,115.674 219.675 M150.066 221.094 C 150.066 221.899,150.100 222.229,150.142 221.826 C 150.184 221.423,150.184 220.764,150.142 220.361 C 150.100 219.958,150.066 220.288,150.066 221.094 M162.944 222.070 C 162.944 222.554,162.982 222.751,163.028 222.510 C 163.075 222.268,163.075 221.873,163.028 221.631 C 162.982 221.389,162.944 221.587,162.944 222.070 M156.836 223.633 L 155.762 223.764 156.776 223.796 C 157.333 223.814,157.844 223.740,157.910 223.633 C 157.977 223.525,158.004 223.452,157.971 223.469 C 157.937 223.487,157.427 223.560,156.836 223.633 M143.216 223.773 C 143.512 223.818,143.952 223.817,144.192 223.770 C 144.432 223.724,144.189 223.687,143.652 223.689 C 143.115 223.690,142.919 223.728,143.216 223.773 M147.518 223.778 C 148.247 223.816,149.390 223.815,150.057 223.777 C 150.724 223.739,150.127 223.708,148.730 223.709 C 147.334 223.709,146.788 223.740,147.518 223.778 M181.791 223.774 C 182.142 223.818,182.669 223.817,182.962 223.772 C 183.256 223.728,182.969 223.692,182.324 223.693 C 181.680 223.694,181.440 223.731,181.791 223.774 M185.107 223.777 C 185.671 223.816,186.594 223.816,187.158 223.777 C 187.722 223.737,187.261 223.705,186.133 223.705 C 185.005 223.705,184.543 223.737,185.107 223.777 M277.002 223.767 C 277.190 223.817,277.498 223.817,277.686 223.767 C 277.874 223.718,277.720 223.678,277.344 223.678 C 276.968 223.678,276.814 223.718,277.002 223.767 M282.572 223.774 C 282.923 223.818,283.450 223.817,283.744 223.772 C 284.037 223.728,283.750 223.692,283.105 223.693 C 282.461 223.694,282.221 223.731,282.572 223.774 M165.479 223.963 C 165.667 224.012,165.974 224.012,166.162 223.963 C 166.350 223.914,166.196 223.873,165.820 223.873 C 165.444 223.873,165.291 223.914,165.479 223.963 M250.049 223.968 C 250.344 224.013,250.828 224.013,251.123 223.968 C 251.418 223.923,251.177 223.887,250.586 223.887 C 249.995 223.887,249.753 223.923,250.049 223.968 M184.912 230.222 C 185.476 230.262,186.399 230.262,186.963 230.222 C 187.527 230.183,187.065 230.150,185.938 230.150 C 184.810 230.150,184.348 230.183,184.912 230.222 M200.244 230.213 C 200.432 230.262,200.740 230.262,200.928 230.213 C 201.116 230.164,200.962 230.123,200.586 230.123 C 200.210 230.123,200.056 230.164,200.244 230.213 M214.108 231.836 C 214.108 232.212,214.148 232.366,214.197 232.178 C 214.246 231.990,214.246 231.682,214.197 231.494 C 214.148 231.306,214.108 231.460,214.108 231.836 M206.295 235.156 C 206.295 235.532,206.336 235.686,206.385 235.498 C 206.434 235.310,206.434 235.002,206.385 234.814 C 206.336 234.626,206.295 234.780,206.295 235.156 M149.151 261.084 C 149.100 261.165,149.776 261.207,150.653 261.178 C 153.391 261.087,153.700 261.004,151.428 260.970 C 150.225 260.952,149.201 261.003,149.151 261.084 M162.552 261.078 C 162.848 261.123,163.288 261.121,163.528 261.075 C 163.768 261.029,163.525 260.992,162.988 260.993 C 162.451 260.995,162.255 261.033,162.552 261.078 M187.061 261.081 C 187.625 261.121,188.547 261.121,189.111 261.081 C 189.675 261.042,189.214 261.010,188.086 261.010 C 186.958 261.010,186.497 261.042,187.061 261.081 M203.843 261.072 C 203.969 261.162,204.111 261.586,204.159 262.014 C 204.244 262.787,204.245 262.786,204.222 261.929 C 204.206 261.341,204.106 261.040,203.906 260.987 C 203.705 260.932,203.685 260.959,203.843 261.072 M197.910 263.867 C 197.910 264.458,197.947 264.700,197.991 264.404 C 198.036 264.109,198.036 263.625,197.991 263.330 C 197.947 263.035,197.910 263.276,197.910 263.867 M150.456 264.648 C 150.456 265.454,150.491 265.784,150.533 265.381 C 150.575 264.978,150.575 264.319,150.533 263.916 C 150.491 263.513,150.456 263.843,150.456 264.648 M158.285 267.285 C 158.285 269.434,158.314 270.339,158.349 269.297 C 158.384 268.256,158.384 266.498,158.349 265.391 C 158.314 264.284,158.285 265.137,158.285 267.285 M228.569 266.992 C 228.569 267.476,228.607 267.673,228.653 267.432 C 228.700 267.190,228.700 266.794,228.653 266.553 C 228.607 266.311,228.569 266.509,228.569 266.992 M160.017 269.043 C 160.018 269.580,160.056 269.777,160.101 269.480 C 160.146 269.183,160.145 268.743,160.098 268.503 C 160.052 268.263,160.015 268.506,160.017 269.043 M197.905 269.727 C 197.905 270.210,197.943 270.408,197.989 270.166 C 198.036 269.924,198.036 269.529,197.989 269.287 C 197.943 269.045,197.905 269.243,197.905 269.727 M161.475 272.013 C 161.716 272.059,162.112 272.059,162.354 272.013 C 162.595 271.966,162.397 271.928,161.914 271.928 C 161.431 271.928,161.233 271.966,161.475 272.013 M190.186 272.013 C 190.427 272.059,190.823 272.059,191.064 272.013 C 191.306 271.966,191.108 271.928,190.625 271.928 C 190.142 271.928,189.944 271.966,190.186 272.013 M201.318 272.013 C 201.560 272.059,201.956 272.059,202.197 272.013 C 202.439 271.966,202.241 271.928,201.758 271.928 C 201.274 271.928,201.077 271.966,201.318 272.013 M236.914 272.559 C 237.278 272.935,237.621 273.242,237.674 273.242 C 237.728 273.242,237.474 272.935,237.109 272.559 C 236.745 272.183,236.403 271.875,236.349 271.875 C 236.295 271.875,236.550 272.183,236.914 272.559 M143.604 272.994 C 144.006 273.036,144.666 273.036,145.068 272.994 C 145.471 272.952,145.142 272.917,144.336 272.917 C 143.530 272.917,143.201 272.952,143.604 272.994 M197.119 272.986 C 197.307 273.035,197.615 273.035,197.803 272.986 C 197.991 272.937,197.837 272.897,197.461 272.897 C 197.085 272.897,196.931 272.937,197.119 272.986 " stroke="none" fill="#9ab9c3" fill-rule="evenodd"></path><path id="path3" d="M221.243 115.958 C 221.485 116.005,221.837 116.003,222.024 115.955 C 222.210 115.906,222.012 115.867,221.582 115.870 C 221.152 115.872,221.000 115.912,221.243 115.958 M229.102 117.090 C 229.370 117.243,229.678 117.369,229.785 117.369 C 229.893 117.369,229.761 117.243,229.492 117.090 C 229.224 116.936,228.916 116.811,228.809 116.811 C 228.701 116.811,228.833 116.936,229.102 117.090 M230.078 117.456 C 230.078 117.502,230.391 117.724,230.773 117.950 C 231.156 118.175,231.414 118.271,231.347 118.163 C 231.216 117.951,230.078 117.317,230.078 117.456 M213.623 118.276 C 212.866 118.687,212.952 118.828,213.721 118.437 C 214.457 118.063,214.587 117.966,214.339 117.977 C 214.241 117.981,213.918 118.116,213.623 118.276 M233.301 119.922 C 233.720 120.352,234.108 120.703,234.161 120.703 C 234.215 120.703,233.916 120.352,233.496 119.922 C 233.077 119.492,232.689 119.141,232.636 119.141 C 232.582 119.141,232.881 119.492,233.301 119.922 M234.670 121.582 C 235.453 122.669,235.669 122.871,235.233 122.106 C 235.030 121.750,234.693 121.310,234.485 121.129 C 234.266 120.938,234.343 121.128,234.670 121.582 M221.830 123.384 C 222.181 123.427,222.708 123.426,223.002 123.382 C 223.295 123.337,223.008 123.302,222.363 123.303 C 221.719 123.304,221.479 123.340,221.830 123.384 M172.450 126.123 L 171.777 126.855 172.510 126.182 C 173.191 125.556,173.332 125.391,173.183 125.391 C 173.150 125.391,172.821 125.720,172.450 126.123 M222.314 125.525 C 222.502 125.574,222.810 125.574,222.998 125.525 C 223.186 125.476,223.032 125.436,222.656 125.436 C 222.280 125.436,222.126 125.476,222.314 125.525 M229.297 126.465 C 229.880 127.056,230.402 127.539,230.455 127.539 C 230.509 127.539,230.076 127.056,229.492 126.465 C 228.909 125.874,228.387 125.391,228.334 125.391 C 228.280 125.391,228.713 125.874,229.297 126.465 M223.649 125.656 C 223.694 125.695,223.994 125.785,224.316 125.857 C 224.744 125.953,224.823 125.935,224.609 125.790 C 224.346 125.612,223.453 125.487,223.649 125.656 M222.282 126.440 C 222.483 126.620,223.633 127.148,223.633 127.061 C 223.633 126.948,222.550 126.367,222.340 126.367 C 222.263 126.367,222.237 126.400,222.282 126.440 M225.391 128.613 C 225.974 129.204,226.495 129.688,226.549 129.688 C 226.603 129.688,226.169 129.204,225.586 128.613 C 225.002 128.022,224.481 127.539,224.427 127.539 C 224.374 127.539,224.807 128.022,225.391 128.613 M238.316 130.371 C 238.309 130.586,238.376 131.113,238.465 131.543 C 238.601 132.200,238.627 132.231,238.626 131.738 C 238.626 131.054,238.334 129.770,238.316 130.371 M238.725 133.594 C 238.725 134.077,238.763 134.275,238.810 134.033 C 238.856 133.792,238.856 133.396,238.810 133.154 C 238.763 132.913,238.725 133.110,238.725 133.594 M161.207 137.793 C 161.208 139.082,161.239 139.584,161.278 138.908 C 161.316 138.233,161.316 137.178,161.277 136.565 C 161.238 135.951,161.207 136.504,161.207 137.793 M168.611 136.621 C 168.612 137.158,168.650 137.355,168.695 137.058 C 168.740 136.761,168.739 136.322,168.692 136.081 C 168.646 135.841,168.609 136.084,168.611 136.621 M238.728 139.551 C 238.729 140.088,238.767 140.284,238.812 139.988 C 238.857 139.691,238.856 139.251,238.809 139.011 C 238.763 138.771,238.726 139.014,238.728 139.551 M232.077 139.648 C 232.077 140.024,232.117 140.178,232.166 139.990 C 232.215 139.802,232.215 139.495,232.166 139.307 C 232.117 139.119,232.077 139.272,232.077 139.648 M234.428 140.820 C 234.428 141.304,234.466 141.501,234.513 141.260 C 234.559 141.018,234.559 140.623,234.513 140.381 C 234.466 140.139,234.428 140.337,234.428 140.820 M168.608 141.211 C 168.608 141.694,168.646 141.892,168.693 141.650 C 168.739 141.409,168.739 141.013,168.693 140.771 C 168.646 140.530,168.608 140.728,168.608 141.211 M230.127 142.090 C 230.130 142.520,230.170 142.672,230.216 142.429 C 230.263 142.186,230.261 141.835,230.212 141.648 C 230.163 141.461,230.125 141.660,230.127 142.090 M232.296 143.066 C 232.295 144.033,232.328 144.453,232.369 144.000 C 232.410 143.547,232.411 142.756,232.370 142.242 C 232.330 141.729,232.296 142.100,232.296 143.066 M234.648 145.313 C 234.648 146.870,234.678 147.507,234.715 146.729 C 234.752 145.950,234.752 144.675,234.715 143.896 C 234.678 143.118,234.648 143.755,234.648 145.313 M238.161 144.032 C 238.102 144.186,238.087 144.472,238.129 144.666 C 238.177 144.887,238.244 144.781,238.307 144.385 C 238.414 143.720,238.345 143.553,238.161 144.032 M230.355 148.047 C 230.355 150.034,230.384 150.847,230.419 149.854 C 230.454 148.860,230.454 147.234,230.419 146.240 C 230.384 145.247,230.355 146.060,230.355 148.047 M237.609 146.788 C 237.535 147.180,237.519 147.545,237.572 147.599 C 237.626 147.652,237.730 147.375,237.804 146.984 C 237.877 146.592,237.894 146.227,237.840 146.173 C 237.786 146.119,237.682 146.396,237.609 146.788 M232.077 146.875 C 232.077 147.251,232.117 147.405,232.166 147.217 C 232.215 147.029,232.215 146.721,232.166 146.533 C 232.117 146.345,232.077 146.499,232.077 146.875 M237.036 149.243 C 236.873 150.057,237.031 150.215,237.207 149.414 C 237.281 149.076,237.301 148.759,237.251 148.710 C 237.202 148.660,237.105 148.900,237.036 149.243 M234.424 150.488 C 234.426 150.918,234.466 151.071,234.513 150.828 C 234.560 150.585,234.558 150.233,234.509 150.047 C 234.460 149.860,234.422 150.059,234.424 150.488 M230.131 154.297 C 230.131 154.780,230.169 154.978,230.216 154.736 C 230.263 154.495,230.263 154.099,230.216 153.857 C 230.169 153.616,230.131 153.813,230.131 154.297 M234.429 157.426 C 234.203 157.961,234.059 158.398,234.110 158.398 C 234.242 158.398,235.009 156.623,234.917 156.531 C 234.874 156.489,234.655 156.892,234.429 157.426 M202.539 176.270 C 202.903 176.646,203.246 176.953,203.299 176.953 C 203.353 176.953,203.099 176.646,202.734 176.270 C 202.370 175.894,202.028 175.586,201.974 175.586 C 201.920 175.586,202.175 175.894,202.539 176.270 M212.155 185.156 C 212.155 185.532,212.195 185.686,212.244 185.498 C 212.293 185.310,212.293 185.002,212.244 184.814 C 212.195 184.626,212.155 184.780,212.155 185.156 M212.350 186.523 C 212.350 186.899,212.390 187.053,212.439 186.865 C 212.488 186.677,212.488 186.370,212.439 186.182 C 212.390 185.994,212.350 186.147,212.350 186.523 M187.354 192.480 C 187.356 192.910,187.396 193.063,187.443 192.820 C 187.490 192.577,187.488 192.225,187.439 192.039 C 187.390 191.852,187.352 192.051,187.354 192.480 M187.159 195.605 C 187.161 196.035,187.201 196.188,187.248 195.945 C 187.294 195.702,187.292 195.350,187.244 195.164 C 187.195 194.977,187.156 195.176,187.159 195.605 M213.135 211.853 C 213.323 211.903,213.630 211.903,213.818 211.853 C 214.006 211.804,213.853 211.764,213.477 211.764 C 213.101 211.764,212.947 211.804,213.135 211.853 M250.539 211.857 C 250.782 211.904,251.134 211.902,251.321 211.853 C 251.507 211.804,251.309 211.766,250.879 211.768 C 250.449 211.770,250.296 211.810,250.539 211.857 M140.381 212.052 C 140.623 212.098,141.018 212.098,141.260 212.052 C 141.501 212.005,141.304 211.967,140.820 211.967 C 140.337 211.967,140.139 212.005,140.381 212.052 M185.703 212.060 C 186.594 212.096,188.000 212.096,188.828 212.059 C 189.655 212.023,188.926 211.993,187.207 211.993 C 185.488 211.993,184.811 212.023,185.703 212.060 M220.850 212.058 C 221.414 212.098,222.336 212.098,222.900 212.058 C 223.464 212.019,223.003 211.986,221.875 211.986 C 220.747 211.986,220.286 212.019,220.850 212.058 M226.859 212.104 C 226.700 212.361,226.906 212.700,227.209 212.680 C 227.377 212.669,227.373 212.637,227.197 212.566 C 226.445 212.262,227.241 212.109,229.576 212.109 C 231.500 212.109,232.220 212.174,232.280 212.354 C 232.327 212.494,232.353 212.473,232.341 212.305 C 232.315 211.947,227.075 211.755,226.859 212.104 M235.303 212.059 C 236.082 212.096,237.356 212.096,238.135 212.059 C 238.914 212.022,238.276 211.992,236.719 211.992 C 235.161 211.992,234.524 212.022,235.303 212.059 M260.494 212.055 C 260.840 212.098,261.456 212.099,261.861 212.057 C 262.266 212.014,261.982 211.979,261.230 211.978 C 260.479 211.977,260.147 212.012,260.494 212.055 M268.025 212.059 C 268.646 212.097,269.613 212.097,270.173 212.058 C 270.733 212.018,270.225 211.987,269.043 211.987 C 267.861 211.988,267.403 212.020,268.025 212.059 M274.463 212.058 C 275.081 212.097,276.091 212.097,276.709 212.058 C 277.327 212.020,276.821 211.988,275.586 211.988 C 274.351 211.988,273.845 212.020,274.463 212.058 M222.891 212.930 C 222.762 213.059,222.666 213.344,222.679 213.564 C 222.701 213.957,222.704 213.957,222.798 213.574 C 222.850 213.359,222.983 213.074,223.092 212.939 C 223.345 212.628,223.199 212.621,222.891 212.930 M188.232 213.028 C 188.474 213.075,188.870 213.075,189.111 213.028 C 189.353 212.982,189.155 212.944,188.672 212.944 C 188.188 212.944,187.991 212.982,188.232 213.028 M274.691 217.480 C 274.691 219.629,274.720 220.534,274.755 219.493 C 274.790 218.451,274.790 216.693,274.755 215.587 C 274.720 214.480,274.692 215.332,274.691 217.480 M222.709 214.844 C 222.709 215.327,222.748 215.525,222.794 215.283 C 222.841 215.042,222.841 214.646,222.794 214.404 C 222.748 214.163,222.709 214.360,222.709 214.844 M235.432 217.480 C 235.432 219.414,235.462 220.179,235.497 219.180 C 235.533 218.180,235.533 216.598,235.497 215.664 C 235.461 214.729,235.432 215.547,235.432 217.480 M260.427 217.285 C 260.428 218.682,260.459 219.227,260.497 218.498 C 260.534 217.768,260.534 216.626,260.496 215.959 C 260.458 215.292,260.427 215.889,260.427 217.285 M262.374 217.285 C 262.373 218.252,262.406 218.672,262.447 218.219 C 262.488 217.765,262.489 216.974,262.448 216.461 C 262.408 215.947,262.375 216.318,262.374 217.285 M222.656 216.297 C 222.656 216.559,222.728 216.818,222.816 216.873 C 222.904 216.927,222.938 216.713,222.892 216.396 C 222.789 215.698,222.656 215.642,222.656 216.297 M201.440 218.652 C 201.441 219.834,201.473 220.292,201.512 219.671 C 201.551 219.049,201.550 218.082,201.511 217.522 C 201.472 216.962,201.440 217.471,201.440 218.652 M246.736 217.676 C 246.737 218.213,246.775 218.409,246.820 218.113 C 246.865 217.816,246.864 217.376,246.817 217.136 C 246.771 216.896,246.734 217.139,246.736 217.676 M237.379 219.336 C 237.379 220.571,237.410 221.077,237.449 220.459 C 237.488 219.841,237.488 218.831,237.449 218.213 C 237.410 217.595,237.379 218.101,237.379 219.336 M254.936 218.164 C 254.936 218.647,254.974 218.845,255.021 218.604 C 255.067 218.362,255.067 217.966,255.021 217.725 C 254.974 217.483,254.936 217.681,254.936 218.164 M244.577 218.164 C 244.577 218.540,244.617 218.694,244.666 218.506 C 244.715 218.318,244.715 218.010,244.666 217.822 C 244.617 217.634,244.577 217.788,244.577 218.164 M279.337 217.940 C 279.138 218.066,279.159 218.181,279.435 218.483 C 279.628 218.694,279.709 218.753,279.617 218.615 C 279.524 218.477,279.500 218.231,279.562 218.069 C 279.692 217.730,279.680 217.722,279.337 217.940 M222.729 219.922 C 222.729 221.050,222.761 221.511,222.800 220.947 C 222.840 220.383,222.840 219.460,222.800 218.896 C 222.761 218.333,222.729 218.794,222.729 219.922 M223.877 218.112 C 224.387 218.153,225.222 218.153,225.732 218.112 C 226.243 218.072,225.825 218.039,224.805 218.039 C 223.784 218.039,223.367 218.072,223.877 218.112 M276.563 218.294 C 276.563 218.473,276.620 218.562,276.691 218.491 C 276.762 218.421,276.959 218.470,277.130 218.602 C 277.321 218.748,277.297 218.672,277.069 218.405 C 276.624 217.883,276.563 217.869,276.563 218.294 M177.002 219.671 C 177.297 219.716,177.781 219.716,178.076 219.671 C 178.372 219.626,178.130 219.590,177.539 219.590 C 176.948 219.590,176.707 219.626,177.002 219.671 M216.074 221.289 C 216.074 221.880,216.111 222.122,216.156 221.826 C 216.200 221.531,216.200 221.047,216.156 220.752 C 216.111 220.457,216.074 220.698,216.074 221.289 M281.836 221.545 C 281.836 221.579,282.122 221.865,282.471 222.180 L 283.105 222.754 282.532 222.119 C 281.997 221.527,281.836 221.395,281.836 221.545 M135.401 222.363 C 135.403 222.793,135.443 222.946,135.490 222.703 C 135.536 222.460,135.535 222.108,135.486 221.922 C 135.437 221.735,135.399 221.934,135.401 222.363 M167.071 222.489 C 166.701 222.906,166.702 222.907,167.139 222.678 C 167.380 222.551,167.578 222.362,167.578 222.259 C 167.578 221.981,167.485 222.024,167.071 222.489 M188.721 222.791 C 188.909 222.840,189.216 222.840,189.404 222.791 C 189.592 222.742,189.438 222.702,189.063 222.702 C 188.687 222.702,188.533 222.742,188.721 222.791 M211.869 222.798 C 212.220 222.841,212.747 222.840,213.041 222.796 C 213.334 222.751,213.047 222.716,212.402 222.717 C 211.758 222.718,211.518 222.754,211.869 222.798 M250.830 222.986 C 251.018 223.035,251.326 223.035,251.514 222.986 C 251.702 222.937,251.548 222.897,251.172 222.897 C 250.796 222.897,250.642 222.937,250.830 222.986 M134.853 223.259 C 134.599 223.670,135.111 223.848,136.348 223.778 L 137.598 223.708 136.258 223.670 C 135.158 223.640,134.939 223.581,135.032 223.340 C 135.162 223.000,135.045 222.948,134.853 223.259 M233.681 223.259 C 233.397 223.719,234.008 223.838,236.344 223.779 L 238.770 223.717 236.279 223.675 C 234.058 223.637,233.305 223.470,234.033 223.176 C 234.209 223.105,234.212 223.073,234.045 223.062 C 233.917 223.054,233.753 223.142,233.681 223.259 M123.487 223.438 C 123.549 223.665,123.913 223.734,125.113 223.745 L 126.660 223.760 125.201 223.687 C 124.368 223.645,123.670 223.513,123.575 223.379 C 123.457 223.213,123.431 223.231,123.487 223.438 M175.195 223.405 C 175.195 223.530,174.910 223.646,174.561 223.662 C 173.936 223.691,173.935 223.693,174.487 223.775 C 175.046 223.858,175.582 223.563,175.329 223.311 C 175.255 223.237,175.195 223.280,175.195 223.405 M218.995 223.438 C 219.060 223.677,219.516 223.732,221.500 223.740 L 223.926 223.751 221.590 223.685 C 220.045 223.642,219.196 223.539,219.084 223.382 C 218.963 223.212,218.938 223.227,218.995 223.438 M110.720 223.689 C 110.805 223.774,111.702 223.818,112.713 223.786 L 114.551 223.728 112.558 223.632 C 111.462 223.579,110.634 223.605,110.720 223.689 M120.466 223.777 C 121.033 223.817,121.912 223.816,122.419 223.776 C 122.925 223.736,122.461 223.704,121.387 223.704 C 120.313 223.705,119.898 223.737,120.466 223.777 M140.581 223.776 C 141.041 223.817,141.744 223.817,142.144 223.775 C 142.544 223.733,142.168 223.699,141.309 223.700 C 140.449 223.700,140.122 223.735,140.581 223.776 M199.463 223.777 C 200.081 223.816,201.091 223.816,201.709 223.777 C 202.327 223.738,201.821 223.707,200.586 223.707 C 199.351 223.707,198.845 223.738,199.463 223.777 M228.760 223.777 C 229.377 223.816,230.388 223.816,231.006 223.777 C 231.624 223.738,231.118 223.707,229.883 223.707 C 228.647 223.707,228.142 223.738,228.760 223.777 M273.981 223.777 C 274.549 223.817,275.428 223.816,275.934 223.776 C 276.441 223.736,275.977 223.704,274.902 223.704 C 273.828 223.705,273.414 223.737,273.981 223.777 M211.868 230.021 C 212.110 230.068,212.462 230.066,212.649 230.017 C 212.835 229.968,212.637 229.930,212.207 229.932 C 211.777 229.934,211.625 229.974,211.868 230.021 M186.219 231.307 C 186.166 231.446,186.149 232.918,186.182 234.579 L 186.241 237.598 186.285 234.440 C 186.316 232.130,186.394 231.256,186.572 231.184 C 186.763 231.107,186.762 231.082,186.566 231.070 C 186.428 231.062,186.272 231.168,186.219 231.307 M199.299 234.277 C 199.298 236.104,199.328 236.877,199.364 235.996 C 199.400 235.115,199.400 233.621,199.364 232.676 C 199.328 231.730,199.299 232.451,199.299 234.277 M197.539 234.668 C 197.539 236.279,197.570 236.912,197.606 236.075 C 197.643 235.238,197.643 233.919,197.606 233.145 C 197.569 232.371,197.539 233.057,197.539 234.668 M184.454 235.840 C 184.454 237.559,184.484 238.236,184.520 237.344 C 184.557 236.453,184.557 235.047,184.520 234.219 C 184.483 233.392,184.454 234.121,184.454 235.840 M194.727 239.465 C 194.727 239.578,194.807 239.622,194.905 239.561 C 195.003 239.500,195.128 239.561,195.183 239.696 C 195.242 239.844,195.288 239.806,195.297 239.600 C 195.306 239.412,195.181 239.258,195.020 239.258 C 194.858 239.258,194.727 239.351,194.727 239.465 M187.354 239.783 C 187.542 239.832,187.849 239.832,188.037 239.783 C 188.225 239.734,188.071 239.694,187.695 239.694 C 187.319 239.694,187.166 239.734,187.354 239.783 M198.389 240.763 C 198.630 240.809,199.026 240.809,199.268 240.763 C 199.509 240.716,199.312 240.678,198.828 240.678 C 198.345 240.678,198.147 240.716,198.389 240.763 M143.306 261.078 C 143.653 261.122,144.268 261.122,144.673 261.080 C 145.079 261.038,144.795 261.002,144.043 261.002 C 143.291 261.001,142.959 261.035,143.306 261.078 M159.131 261.081 C 159.695 261.121,160.618 261.121,161.182 261.081 C 161.746 261.042,161.284 261.010,160.156 261.010 C 159.028 261.010,158.567 261.042,159.131 261.081 M167.432 261.072 C 167.620 261.121,167.927 261.121,168.115 261.072 C 168.303 261.023,168.149 260.983,167.773 260.983 C 167.397 260.983,167.244 261.023,167.432 261.072 M170.557 261.072 C 170.745 261.121,171.052 261.121,171.240 261.072 C 171.428 261.023,171.274 260.983,170.898 260.983 C 170.522 260.983,170.369 261.023,170.557 261.072 M179.619 261.084 C 179.569 261.165,180.157 261.206,180.926 261.177 C 183.439 261.081,183.729 261.004,181.701 260.970 C 180.606 260.952,179.670 261.003,179.619 261.084 M197.705 261.081 C 198.215 261.121,199.050 261.121,199.561 261.081 C 200.071 261.041,199.653 261.008,198.633 261.008 C 197.612 261.008,197.195 261.041,197.705 261.081 M201.318 261.081 C 201.775 261.122,202.522 261.122,202.979 261.081 C 203.435 261.039,203.062 261.006,202.148 261.006 C 201.235 261.006,200.862 261.039,201.318 261.081 M210.996 261.083 C 211.941 261.119,213.435 261.119,214.316 261.083 C 215.197 261.047,214.424 261.017,212.598 261.017 C 210.771 261.018,210.051 261.047,210.996 261.083 M217.631 261.719 C 217.631 262.202,217.669 262.400,217.716 262.158 C 217.763 261.917,217.763 261.521,217.716 261.279 C 217.669 261.038,217.631 261.235,217.631 261.719 M227.591 261.078 C 227.887 261.123,228.327 261.121,228.567 261.075 C 228.807 261.029,228.564 260.992,228.027 260.993 C 227.490 260.995,227.294 261.033,227.591 261.078 M170.957 261.763 C 170.514 262.335,170.486 262.567,170.910 262.164 C 171.160 261.925,171.317 261.681,171.257 261.622 C 171.198 261.563,171.063 261.626,170.957 261.763 M143.033 263.770 C 143.034 264.521,143.069 264.805,143.111 264.400 C 143.154 263.995,143.153 263.379,143.110 263.033 C 143.067 262.686,143.032 263.018,143.033 263.770 M211.600 265.039 C 211.600 266.489,211.631 267.083,211.668 266.357 C 211.706 265.632,211.706 264.446,211.668 263.721 C 211.631 262.996,211.600 263.589,211.600 265.039 M144.991 264.355 C 144.991 265.322,145.024 265.742,145.065 265.289 C 145.106 264.836,145.106 264.045,145.066 263.531 C 145.025 263.018,144.992 263.389,144.991 264.355 M188.950 266.602 C 188.950 268.804,188.978 269.705,189.013 268.604 C 189.048 267.502,189.048 265.701,189.013 264.600 C 188.978 263.499,188.950 264.399,188.950 266.602 M186.959 263.477 C 186.959 263.853,187.000 264.006,187.049 263.818 C 187.098 263.630,187.098 263.323,187.049 263.135 C 187.000 262.947,186.959 263.101,186.959 263.477 M237.949 263.867 C 237.949 264.458,237.986 264.700,238.031 264.404 C 238.075 264.109,238.075 263.625,238.031 263.330 C 237.986 263.035,237.949 263.276,237.949 263.867 M228.581 264.844 C 228.581 265.649,228.616 265.979,228.658 265.576 C 228.700 265.173,228.700 264.514,228.658 264.111 C 228.616 263.708,228.581 264.038,228.581 264.844 M229.731 267.334 L 229.774 270.410 229.834 267.521 C 229.879 265.308,229.949 264.665,230.132 264.775 C 230.285 264.867,230.274 264.799,230.103 264.588 C 229.956 264.407,229.802 264.258,229.761 264.258 C 229.721 264.258,229.707 265.642,229.731 267.334 M197.925 266.895 C 197.925 268.076,197.957 268.534,197.996 267.913 C 198.035 267.291,198.035 266.324,197.995 265.764 C 197.956 265.204,197.924 265.713,197.925 266.895 M213.548 267.480 C 213.548 268.555,213.581 268.969,213.621 268.402 C 213.660 267.834,213.660 266.955,213.620 266.449 C 213.580 265.942,213.547 266.406,213.548 267.480 M146.533 266.160 C 147.258 266.198,148.445 266.198,149.170 266.160 C 149.895 266.123,149.302 266.092,147.852 266.092 C 146.401 266.092,145.808 266.123,146.533 266.160 M174.841 266.583 C 174.594 267.289,174.612 267.311,175.032 266.821 C 175.205 266.618,175.280 266.348,175.199 266.216 C 175.102 266.060,174.979 266.186,174.841 266.583 M161.963 266.346 C 162.151 266.395,162.458 266.395,162.646 266.346 C 162.834 266.296,162.681 266.256,162.305 266.256 C 161.929 266.256,161.775 266.296,161.963 266.346 M201.025 266.346 C 201.213 266.395,201.521 266.395,201.709 266.346 C 201.897 266.296,201.743 266.256,201.367 266.256 C 200.991 266.256,200.837 266.296,201.025 266.346 M203.764 267.188 C 203.764 267.671,203.802 267.869,203.849 267.627 C 203.895 267.385,203.895 266.990,203.849 266.748 C 203.802 266.506,203.764 266.704,203.764 267.188 M144.992 268.945 C 144.992 269.966,145.025 270.383,145.065 269.873 C 145.106 269.363,145.106 268.528,145.065 268.018 C 145.025 267.507,144.992 267.925,144.992 268.945 M150.464 269.238 C 150.464 270.420,150.496 270.878,150.535 270.257 C 150.574 269.635,150.574 268.668,150.534 268.108 C 150.495 267.548,150.463 268.057,150.464 269.238 M160.598 267.523 C 160.895 267.568,161.335 267.567,161.575 267.520 C 161.815 267.474,161.572 267.437,161.035 267.439 C 160.498 267.440,160.302 267.478,160.598 267.523 M237.936 272.070 C 237.936 272.446,237.976 272.600,238.025 272.412 C 238.074 272.224,238.074 271.917,238.025 271.729 C 237.976 271.541,237.936 271.694,237.936 272.070 " stroke="none" fill="#cae4ec" fill-rule="evenodd"></path><path id="path4" d="M220.410 125.781 C 220.625 125.874,220.933 125.949,221.094 125.949 C 221.278 125.949,221.242 125.887,220.996 125.781 C 220.781 125.689,220.474 125.613,220.313 125.613 C 220.128 125.613,220.164 125.675,220.410 125.781 M168.405 136.914 C 168.405 137.290,168.445 137.444,168.494 137.256 C 168.543 137.068,168.543 136.760,168.494 136.572 C 168.445 136.384,168.405 136.538,168.405 136.914 M238.522 139.453 C 238.522 139.829,238.562 139.983,238.611 139.795 C 238.660 139.607,238.660 139.299,238.611 139.111 C 238.562 138.923,238.522 139.077,238.522 139.453 M168.409 140.527 C 168.411 140.957,168.451 141.110,168.498 140.867 C 168.544 140.624,168.542 140.272,168.494 140.086 C 168.445 139.899,168.406 140.098,168.409 140.527 M232.101 143.262 C 232.100 144.229,232.133 144.649,232.174 144.195 C 232.215 143.742,232.215 142.951,232.175 142.438 C 232.135 141.924,232.101 142.295,232.101 143.262 M230.273 154.155 C 230.273 154.543,230.356 154.911,230.457 154.973 C 230.567 155.041,230.595 154.789,230.527 154.350 C 230.376 153.369,230.273 153.291,230.273 154.155 M230.208 155.599 C 230.137 155.671,230.086 156.000,230.096 156.331 L 230.113 156.934 230.302 156.277 C 230.491 155.622,230.454 155.353,230.208 155.599 M200.149 168.498 C 200.392 168.544,200.743 168.542,200.930 168.494 C 201.117 168.445,200.918 168.406,200.488 168.409 C 200.059 168.411,199.906 168.451,200.149 168.498 M202.148 175.647 C 202.148 175.681,202.434 175.966,202.783 176.282 L 203.418 176.855 202.844 176.221 C 202.310 175.629,202.148 175.496,202.148 175.647 M147.900 212.255 C 148.733 212.291,150.095 212.291,150.928 212.255 C 151.760 212.218,151.079 212.188,149.414 212.188 C 147.749 212.188,147.068 212.218,147.900 212.255 M199.854 212.253 C 200.364 212.293,201.199 212.293,201.709 212.253 C 202.219 212.213,201.802 212.180,200.781 212.180 C 199.761 212.180,199.343 212.213,199.854 212.253 M215.567 212.247 C 215.701 212.342,215.833 213.040,215.874 213.873 L 215.947 215.332 215.933 213.785 C 215.921 212.584,215.852 212.221,215.625 212.159 C 215.418 212.103,215.401 212.129,215.567 212.247 M260.016 212.253 C 260.529 212.294,261.320 212.293,261.773 212.252 C 262.227 212.211,261.807 212.178,260.840 212.179 C 259.873 212.179,259.502 212.213,260.016 212.253 M250.049 212.830 C 250.237 212.879,250.544 212.879,250.732 212.830 C 250.920 212.781,250.767 212.741,250.391 212.741 C 250.015 212.741,249.861 212.781,250.049 212.830 M148.324 217.480 C 148.324 219.629,148.353 220.534,148.388 219.493 C 148.423 218.451,148.423 216.693,148.388 215.587 C 148.353 214.480,148.324 215.332,148.324 217.480 M141.684 217.871 C 141.684 220.127,141.713 221.023,141.747 219.862 C 141.782 218.702,141.782 216.856,141.747 215.761 C 141.712 214.666,141.684 215.615,141.684 217.871 M237.159 214.551 C 237.161 214.980,237.201 215.133,237.248 214.890 C 237.294 214.647,237.292 214.296,237.244 214.109 C 237.195 213.922,237.156 214.121,237.159 214.551 M199.495 217.676 C 199.496 219.717,199.525 220.525,199.560 219.472 C 199.595 218.419,199.595 216.749,199.559 215.761 C 199.524 214.773,199.495 215.635,199.495 217.676 M220.748 214.648 C 220.748 215.024,220.789 215.178,220.838 214.990 C 220.887 214.802,220.887 214.495,220.838 214.307 C 220.789 214.119,220.748 214.272,220.748 214.648 M276.426 216.406 C 276.426 216.997,276.462 217.239,276.507 216.943 C 276.552 216.648,276.552 216.165,276.507 215.869 C 276.462 215.574,276.426 215.815,276.426 216.406 M143.437 219.727 C 143.437 221.284,143.467 221.921,143.504 221.143 C 143.541 220.364,143.541 219.089,143.504 218.311 C 143.467 217.532,143.437 218.169,143.437 219.727 M224.365 217.137 C 225.144 217.174,226.418 217.174,227.197 217.137 C 227.976 217.100,227.339 217.070,225.781 217.070 C 224.224 217.070,223.586 217.100,224.365 217.137 M256.881 217.578 C 256.881 217.954,256.921 218.108,256.971 217.920 C 257.020 217.732,257.020 217.424,256.971 217.236 C 256.921 217.048,256.881 217.202,256.881 217.578 M224.072 217.919 C 224.905 217.955,226.267 217.955,227.100 217.919 C 227.932 217.882,227.251 217.852,225.586 217.852 C 223.921 217.852,223.240 217.882,224.072 217.919 M277.148 218.457 C 277.513 218.833,277.846 219.141,277.890 219.141 C 278.054 219.141,276.847 217.801,276.671 217.788 C 276.569 217.780,276.784 218.081,277.148 218.457 M213.428 218.305 C 213.777 218.349,214.348 218.349,214.697 218.305 C 215.046 218.262,214.761 218.227,214.063 218.227 C 213.364 218.227,213.079 218.262,213.428 218.305 M276.435 219.922 C 276.435 220.835,276.469 221.208,276.510 220.752 C 276.551 220.295,276.551 219.548,276.510 219.092 C 276.469 218.635,276.435 219.009,276.435 219.922 M176.025 218.697 C 176.428 218.739,177.087 218.739,177.490 218.697 C 177.893 218.655,177.563 218.620,176.758 218.620 C 175.952 218.620,175.623 218.655,176.025 218.697 M185.607 220.605 C 185.608 221.250,185.645 221.490,185.688 221.139 C 185.732 220.788,185.731 220.261,185.686 219.967 C 185.642 219.674,185.606 219.961,185.607 220.605 M214.307 220.410 C 214.309 220.840,214.349 220.993,214.396 220.750 C 214.443 220.507,214.441 220.155,214.392 219.968 C 214.343 219.782,214.305 219.980,214.307 220.410 M212.158 222.986 C 212.346 223.035,212.654 223.035,212.842 222.986 C 213.030 222.937,212.876 222.897,212.500 222.897 C 212.124 222.897,211.970 222.937,212.158 222.986 M264.505 223.968 C 264.802 224.013,265.241 224.012,265.481 223.966 C 265.721 223.919,265.479 223.883,264.941 223.884 C 264.404 223.885,264.208 223.923,264.505 223.968 M196.484 230.225 C 196.484 230.305,197.033 230.347,197.705 230.317 C 199.909 230.219,200.128 230.141,198.291 230.109 C 197.297 230.092,196.484 230.144,196.484 230.225 M185.998 238.184 C 185.999 238.828,186.036 239.068,186.079 238.717 C 186.123 238.366,186.122 237.839,186.077 237.545 C 186.032 237.252,185.997 237.539,185.998 238.184 M185.010 240.570 C 185.305 240.614,185.789 240.614,186.084 240.570 C 186.379 240.525,186.138 240.488,185.547 240.488 C 184.956 240.488,184.714 240.525,185.010 240.570 M164.102 261.059 C 164.344 261.131,164.454 261.430,164.511 262.171 L 164.588 263.184 164.569 262.111 C 164.553 261.189,164.496 261.033,164.160 260.999 C 163.874 260.971,163.859 260.986,164.102 261.059 M242.720 261.274 C 243.067 261.317,243.682 261.318,244.087 261.275 C 244.493 261.233,244.209 261.198,243.457 261.197 C 242.705 261.196,242.374 261.231,242.720 261.274 M250.924 261.275 C 252.033 261.327,252.358 261.400,252.145 261.547 C 251.951 261.682,251.941 261.726,252.114 261.680 C 252.892 261.474,252.264 261.229,250.927 261.217 L 249.413 261.204 250.924 261.275 M160.284 262.061 C 160.234 262.141,160.603 262.181,161.103 262.149 C 162.529 262.057,162.702 261.962,161.486 261.937 C 160.875 261.924,160.334 261.980,160.284 262.061 M209.912 262.052 C 210.154 262.098,210.549 262.098,210.791 262.052 C 211.033 262.005,210.835 261.967,210.352 261.967 C 209.868 261.967,209.670 262.005,209.912 262.052 M199.681 264.355 C 199.681 265.430,199.714 265.844,199.754 265.277 C 199.793 264.709,199.793 263.830,199.753 263.324 C 199.713 262.817,199.680 263.281,199.681 264.355 M213.363 266.895 C 213.363 269.043,213.392 269.949,213.427 268.907 C 213.462 267.865,213.462 266.107,213.427 265.001 C 213.392 263.894,213.363 264.746,213.363 266.895 M236.600 265.625 C 236.600 267.075,236.631 267.668,236.668 266.943 C 236.706 266.218,236.706 265.032,236.668 264.307 C 236.631 263.582,236.600 264.175,236.600 265.625 M160.028 264.746 C 160.029 265.605,160.063 265.933,160.104 265.473 C 160.145 265.014,160.145 264.311,160.103 263.911 C 160.061 263.511,160.027 263.887,160.028 264.746 M152.229 267.188 C 152.229 269.067,152.258 269.836,152.294 268.896 C 152.330 267.957,152.330 266.418,152.294 265.479 C 152.258 264.539,152.229 265.308,152.229 267.188 M237.776 267.773 C 237.776 269.653,237.805 270.422,237.841 269.482 C 237.877 268.542,237.877 267.004,237.841 266.064 C 237.805 265.125,237.776 265.894,237.776 267.773 M187.186 267.969 C 187.186 269.419,187.217 270.012,187.254 269.287 C 187.292 268.562,187.292 267.375,187.254 266.650 C 187.217 265.925,187.186 266.519,187.186 267.969 M164.112 266.895 C 164.114 267.324,164.154 267.477,164.201 267.234 C 164.247 266.991,164.246 266.640,164.197 266.453 C 164.148 266.266,164.110 266.465,164.112 266.895 M146.436 267.137 C 147.107 267.175,148.206 267.175,148.877 267.137 C 149.548 267.099,148.999 267.067,147.656 267.067 C 146.313 267.067,145.764 267.099,146.436 267.137 M199.693 267.446 C 199.639 267.589,199.623 268.533,199.659 269.546 L 199.724 271.387 199.764 269.397 L 199.805 267.408 200.439 267.329 L 201.074 267.250 200.433 267.219 C 200.057 267.200,199.751 267.294,199.693 267.446 M228.578 268.945 C 228.578 269.644,228.614 269.929,228.657 269.580 C 228.700 269.231,228.700 268.660,228.657 268.311 C 228.614 267.961,228.578 268.247,228.578 268.945 M247.527 269.531 C 247.527 270.337,247.561 270.667,247.603 270.264 C 247.645 269.861,247.645 269.202,247.603 268.799 C 247.561 268.396,247.527 268.726,247.527 269.531 M160.010 270.605 C 160.012 271.035,160.052 271.188,160.099 270.945 C 160.146 270.702,160.144 270.350,160.095 270.164 C 160.046 269.977,160.008 270.176,160.010 270.605 M231.141 272.639 C 231.255 272.822,230.792 272.862,229.139 272.815 C 227.957 272.782,227.030 272.820,227.080 272.900 C 227.131 272.981,228.084 273.047,229.199 273.047 C 231.090 273.047,231.767 272.878,231.223 272.542 C 231.076 272.451,231.047 272.485,231.141 272.639 M201.172 272.852 L 197.949 272.964 201.112 273.005 C 203.055 273.031,204.320 272.972,204.395 272.852 C 204.461 272.744,204.488 272.675,204.455 272.698 C 204.422 272.721,202.944 272.790,201.172 272.852 M150.738 272.995 C 151.197 273.036,151.900 273.036,152.300 272.994 C 152.700 272.952,152.324 272.918,151.465 272.919 C 150.605 272.919,150.278 272.954,150.738 272.995 M160.213 272.997 C 160.943 273.034,162.085 273.034,162.752 272.996 C 163.419 272.958,162.822 272.927,161.426 272.927 C 160.029 272.928,159.484 272.959,160.213 272.997 M187.744 272.997 C 188.792 273.032,190.505 273.032,191.553 272.997 C 192.600 272.962,191.743 272.933,189.648 272.933 C 187.554 272.933,186.697 272.962,187.744 272.997 M211.768 272.995 C 212.278 273.035,213.113 273.035,213.623 272.995 C 214.133 272.955,213.716 272.922,212.695 272.922 C 211.675 272.922,211.257 272.955,211.768 272.995 M245.947 272.995 C 246.458 273.035,247.292 273.035,247.803 272.995 C 248.313 272.955,247.896 272.922,246.875 272.922 C 245.854 272.922,245.437 272.955,245.947 272.995 " stroke="none" fill="#7c848c" fill-rule="evenodd"></path></g></svg>